%TF.GenerationSoftware,KiCad,Pcbnew,5.1.8+dfsg1-1+b1*%
%TF.CreationDate,2021-07-20T03:33:59+03:00*%
%TF.ProjectId,gbs-cgaega,6762732d-6367-4616-9567-612e6b696361,rev?*%
%TF.SameCoordinates,Original*%
%TF.FileFunction,Legend,Bot*%
%TF.FilePolarity,Positive*%
%FSLAX46Y46*%
G04 Gerber Fmt 4.6, Leading zero omitted, Abs format (unit mm)*
G04 Created by KiCad (PCBNEW 5.1.8+dfsg1-1+b1) date 2021-07-20 03:33:59*
%MOMM*%
%LPD*%
G01*
G04 APERTURE LIST*
%ADD10C,0.150000*%
G04 APERTURE END LIST*
D10*
X134142857Y-112719047D02*
X134095238Y-112766666D01*
X134047619Y-112909523D01*
X134047619Y-113004761D01*
X134095238Y-113147619D01*
X134190476Y-113242857D01*
X134285714Y-113290476D01*
X134476190Y-113338095D01*
X134619047Y-113338095D01*
X134809523Y-113290476D01*
X134904761Y-113242857D01*
X135000000Y-113147619D01*
X135047619Y-113004761D01*
X135047619Y-112909523D01*
X135000000Y-112766666D01*
X134952380Y-112719047D01*
X134095238Y-112338095D02*
X134047619Y-112195238D01*
X134047619Y-111957142D01*
X134095238Y-111861904D01*
X134142857Y-111814285D01*
X134238095Y-111766666D01*
X134333333Y-111766666D01*
X134428571Y-111814285D01*
X134476190Y-111861904D01*
X134523809Y-111957142D01*
X134571428Y-112147619D01*
X134619047Y-112242857D01*
X134666666Y-112290476D01*
X134761904Y-112338095D01*
X134857142Y-112338095D01*
X134952380Y-112290476D01*
X135000000Y-112242857D01*
X135047619Y-112147619D01*
X135047619Y-111909523D01*
X135000000Y-111766666D01*
X134523809Y-111147619D02*
X134047619Y-111147619D01*
X135047619Y-111480952D02*
X134523809Y-111147619D01*
X135047619Y-110814285D01*
X134047619Y-110480952D02*
X135047619Y-110480952D01*
X134047619Y-109909523D01*
X135047619Y-109909523D01*
X134142857Y-108861904D02*
X134095238Y-108909523D01*
X134047619Y-109052380D01*
X134047619Y-109147619D01*
X134095238Y-109290476D01*
X134190476Y-109385714D01*
X134285714Y-109433333D01*
X134476190Y-109480952D01*
X134619047Y-109480952D01*
X134809523Y-109433333D01*
X134904761Y-109385714D01*
X135000000Y-109290476D01*
X135047619Y-109147619D01*
X135047619Y-109052380D01*
X135000000Y-108909523D01*
X134952380Y-108861904D01*
X141447619Y-112742857D02*
X141923809Y-113076190D01*
X141447619Y-113314285D02*
X142447619Y-113314285D01*
X142447619Y-112933333D01*
X142400000Y-112838095D01*
X142352380Y-112790476D01*
X142257142Y-112742857D01*
X142114285Y-112742857D01*
X142019047Y-112790476D01*
X141971428Y-112838095D01*
X141923809Y-112933333D01*
X141923809Y-113314285D01*
X141971428Y-112314285D02*
X141971428Y-111980952D01*
X141447619Y-111838095D02*
X141447619Y-112314285D01*
X142447619Y-112314285D01*
X142447619Y-111838095D01*
X141447619Y-111409523D02*
X142447619Y-111409523D01*
X142447619Y-111171428D01*
X142400000Y-111028571D01*
X142304761Y-110933333D01*
X142209523Y-110885714D01*
X142019047Y-110838095D01*
X141876190Y-110838095D01*
X141685714Y-110885714D01*
X141590476Y-110933333D01*
X141495238Y-111028571D01*
X141447619Y-111171428D01*
X141447619Y-111409523D01*
X139900000Y-112766666D02*
X139947619Y-112861904D01*
X139947619Y-113004761D01*
X139900000Y-113147619D01*
X139804761Y-113242857D01*
X139709523Y-113290476D01*
X139519047Y-113338095D01*
X139376190Y-113338095D01*
X139185714Y-113290476D01*
X139090476Y-113242857D01*
X138995238Y-113147619D01*
X138947619Y-113004761D01*
X138947619Y-112909523D01*
X138995238Y-112766666D01*
X139042857Y-112719047D01*
X139376190Y-112719047D01*
X139376190Y-112909523D01*
X138947619Y-111719047D02*
X139423809Y-112052380D01*
X138947619Y-112290476D02*
X139947619Y-112290476D01*
X139947619Y-111909523D01*
X139900000Y-111814285D01*
X139852380Y-111766666D01*
X139757142Y-111719047D01*
X139614285Y-111719047D01*
X139519047Y-111766666D01*
X139471428Y-111814285D01*
X139423809Y-111909523D01*
X139423809Y-112290476D01*
X139471428Y-111290476D02*
X139471428Y-110957142D01*
X138947619Y-110814285D02*
X138947619Y-111290476D01*
X139947619Y-111290476D01*
X139947619Y-110814285D01*
X139471428Y-110385714D02*
X139471428Y-110052380D01*
X138947619Y-109909523D02*
X138947619Y-110385714D01*
X139947619Y-110385714D01*
X139947619Y-109909523D01*
X138947619Y-109480952D02*
X139947619Y-109480952D01*
X138947619Y-108909523D01*
X139947619Y-108909523D01*
X136971428Y-113009523D02*
X136923809Y-112866666D01*
X136876190Y-112819047D01*
X136780952Y-112771428D01*
X136638095Y-112771428D01*
X136542857Y-112819047D01*
X136495238Y-112866666D01*
X136447619Y-112961904D01*
X136447619Y-113342857D01*
X137447619Y-113342857D01*
X137447619Y-113009523D01*
X137400000Y-112914285D01*
X137352380Y-112866666D01*
X137257142Y-112819047D01*
X137161904Y-112819047D01*
X137066666Y-112866666D01*
X137019047Y-112914285D01*
X136971428Y-113009523D01*
X136971428Y-113342857D01*
X136447619Y-111866666D02*
X136447619Y-112342857D01*
X137447619Y-112342857D01*
X137447619Y-111533333D02*
X136638095Y-111533333D01*
X136542857Y-111485714D01*
X136495238Y-111438095D01*
X136447619Y-111342857D01*
X136447619Y-111152380D01*
X136495238Y-111057142D01*
X136542857Y-111009523D01*
X136638095Y-110961904D01*
X137447619Y-110961904D01*
X136971428Y-110485714D02*
X136971428Y-110152380D01*
X136447619Y-110009523D02*
X136447619Y-110485714D01*
X137447619Y-110485714D01*
X137447619Y-110009523D01*
M02*
