%TF.GenerationSoftware,KiCad,Pcbnew,5.1.8+dfsg1-1+b1*%
%TF.CreationDate,2021-07-20T03:33:59+03:00*%
%TF.ProjectId,gbs-cgaega,6762732d-6367-4616-9567-612e6b696361,rev?*%
%TF.SameCoordinates,Original*%
%TF.FileFunction,Copper,L2,Bot*%
%TF.FilePolarity,Positive*%
%FSLAX46Y46*%
G04 Gerber Fmt 4.6, Leading zero omitted, Abs format (unit mm)*
G04 Created by KiCad (PCBNEW 5.1.8+dfsg1-1+b1) date 2021-07-20 03:33:59*
%MOMM*%
%LPD*%
G01*
G04 APERTURE LIST*
%TA.AperFunction,ComponentPad*%
%ADD10C,5.700000*%
%TD*%
%TA.AperFunction,ComponentPad*%
%ADD11O,1.600000X2.400000*%
%TD*%
%TA.AperFunction,ComponentPad*%
%ADD12R,1.600000X2.400000*%
%TD*%
%TA.AperFunction,ComponentPad*%
%ADD13R,1.600000X1.600000*%
%TD*%
%TA.AperFunction,ComponentPad*%
%ADD14C,1.600000*%
%TD*%
%TA.AperFunction,ComponentPad*%
%ADD15C,4.000000*%
%TD*%
%TA.AperFunction,ComponentPad*%
%ADD16O,2.000000X1.700000*%
%TD*%
%TA.AperFunction,ComponentPad*%
%ADD17O,1.700000X1.950000*%
%TD*%
%TA.AperFunction,ComponentPad*%
%ADD18R,1.700000X1.700000*%
%TD*%
%TA.AperFunction,ComponentPad*%
%ADD19O,1.700000X1.700000*%
%TD*%
%TA.AperFunction,ViaPad*%
%ADD20C,0.800000*%
%TD*%
%TA.AperFunction,Conductor*%
%ADD21C,0.250000*%
%TD*%
%TA.AperFunction,Conductor*%
%ADD22C,0.254000*%
%TD*%
%TA.AperFunction,Conductor*%
%ADD23C,0.100000*%
%TD*%
G04 APERTURE END LIST*
D10*
%TO.P,H3,1*%
%TO.N,GND*%
X112800000Y-95300000D03*
%TD*%
%TO.P,H1,1*%
%TO.N,GND*%
X112800000Y-126700000D03*
%TD*%
D11*
%TO.P,U1,20*%
%TO.N,VCC*%
X146250000Y-103120000D03*
%TO.P,U1,10*%
%TO.N,GND*%
X123390000Y-95500000D03*
%TO.P,U1,19*%
%TO.N,/R1*%
X143710000Y-103120000D03*
%TO.P,U1,9*%
%TO.N,/VSYNC*%
X125930000Y-95500000D03*
%TO.P,U1,18*%
%TO.N,/R0*%
X141170000Y-103120000D03*
%TO.P,U1,8*%
%TO.N,/HSYNC*%
X128470000Y-95500000D03*
%TO.P,U1,17*%
%TO.N,/G1*%
X138630000Y-103120000D03*
%TO.P,U1,7*%
%TO.N,/BI*%
X131010000Y-95500000D03*
%TO.P,U1,16*%
%TO.N,/G0*%
X136090000Y-103120000D03*
%TO.P,U1,6*%
%TO.N,/GI_INT*%
X133550000Y-95500000D03*
%TO.P,U1,15*%
%TO.N,/B1*%
X133550000Y-103120000D03*
%TO.P,U1,5*%
%TO.N,/RI*%
X136090000Y-95500000D03*
%TO.P,U1,14*%
%TO.N,/B0*%
X131010000Y-103120000D03*
%TO.P,U1,4*%
%TO.N,/BLU*%
X138630000Y-95500000D03*
%TO.P,U1,13*%
%TO.N,/~CSYNC*%
X128470000Y-103120000D03*
%TO.P,U1,3*%
%TO.N,/GRN*%
X141170000Y-95500000D03*
%TO.P,U1,12*%
%TO.N,/CSYNC*%
X125930000Y-103120000D03*
%TO.P,U1,2*%
%TO.N,/RED*%
X143710000Y-95500000D03*
%TO.P,U1,11*%
%TO.N,/EGA*%
X123390000Y-103120000D03*
D12*
%TO.P,U1,1*%
%TO.N,Net-(U1-Pad1)*%
X146250000Y-95500000D03*
%TD*%
D13*
%TO.P,J1,1*%
%TO.N,GND*%
X143000000Y-117850000D03*
D14*
%TO.P,J1,2*%
%TO.N,/RI*%
X140230000Y-117850000D03*
%TO.P,J1,3*%
%TO.N,/RED*%
X137460000Y-117850000D03*
%TO.P,J1,4*%
%TO.N,/GRN*%
X134690000Y-117850000D03*
%TO.P,J1,5*%
%TO.N,/BLU*%
X131920000Y-117850000D03*
%TO.P,J1,6*%
%TO.N,/GI_INT*%
X141615000Y-120690000D03*
%TO.P,J1,7*%
%TO.N,/BI*%
X138845000Y-120690000D03*
%TO.P,J1,8*%
%TO.N,/HSYNC*%
X136075000Y-120690000D03*
%TO.P,J1,9*%
%TO.N,/VSYNC*%
X133305000Y-120690000D03*
D15*
%TO.P,J1,0*%
%TO.N,GND*%
X124960000Y-119270000D03*
X149960000Y-119270000D03*
%TD*%
%TO.P,J2,1*%
%TO.N,VCC*%
%TA.AperFunction,ComponentPad*%
G36*
G01*
X155250000Y-100700000D02*
X153750000Y-100700000D01*
G75*
G02*
X153500000Y-100450000I0J250000D01*
G01*
X153500000Y-99250000D01*
G75*
G02*
X153750000Y-99000000I250000J0D01*
G01*
X155250000Y-99000000D01*
G75*
G02*
X155500000Y-99250000I0J-250000D01*
G01*
X155500000Y-100450000D01*
G75*
G02*
X155250000Y-100700000I-250000J0D01*
G01*
G37*
%TD.AperFunction*%
D16*
%TO.P,J2,2*%
%TO.N,GND*%
X154500000Y-97350000D03*
%TD*%
%TO.P,J3,1*%
%TO.N,GND*%
%TA.AperFunction,ComponentPad*%
G36*
G01*
X123650000Y-115575000D02*
X123650000Y-114125000D01*
G75*
G02*
X123900000Y-113875000I250000J0D01*
G01*
X125100000Y-113875000D01*
G75*
G02*
X125350000Y-114125000I0J-250000D01*
G01*
X125350000Y-115575000D01*
G75*
G02*
X125100000Y-115825000I-250000J0D01*
G01*
X123900000Y-115825000D01*
G75*
G02*
X123650000Y-115575000I0J250000D01*
G01*
G37*
%TD.AperFunction*%
D17*
%TO.P,J3,2*%
%TO.N,Net-(J3-Pad2)*%
X127000000Y-114850000D03*
%TO.P,J3,3*%
%TO.N,Net-(J3-Pad3)*%
X129500000Y-114850000D03*
%TO.P,J3,4*%
%TO.N,Net-(J3-Pad4)*%
X132000000Y-114850000D03*
%TO.P,J3,5*%
%TO.N,/CS*%
X134500000Y-114850000D03*
%TO.P,J3,6*%
%TO.N,/BA*%
X137000000Y-114850000D03*
%TO.P,J3,7*%
%TO.N,/GA*%
X139500000Y-114850000D03*
%TO.P,J3,8*%
%TO.N,/RA*%
X142000000Y-114850000D03*
%TD*%
D18*
%TO.P,SW1,1*%
%TO.N,GND*%
X147000000Y-108350000D03*
D19*
%TO.P,SW1,2*%
%TO.N,/EGA*%
X149540000Y-108350000D03*
%TO.P,SW1,3*%
%TO.N,Net-(SW1-Pad3)*%
X152080000Y-108350000D03*
%TD*%
%TO.P,SW2,3*%
%TO.N,/~CSYNC*%
X127830000Y-108350000D03*
%TO.P,SW2,2*%
%TO.N,/CS*%
X125290000Y-108350000D03*
D18*
%TO.P,SW2,1*%
%TO.N,/CSYNC*%
X122750000Y-108350000D03*
%TD*%
D20*
%TO.N,GND*%
X130600000Y-112200000D03*
X142500000Y-110900000D03*
X143600000Y-99100000D03*
X129700000Y-99100000D03*
X125900000Y-99100000D03*
X146300000Y-98200000D03*
X137000000Y-111400000D03*
X121100000Y-105600000D03*
X140000000Y-110900000D03*
X127800000Y-110500000D03*
%TD*%
D21*
%TO.N,/RI*%
X144000000Y-119400000D02*
X141780000Y-119400000D01*
X141780000Y-119400000D02*
X140230000Y-117850000D01*
X145000000Y-94600000D02*
X145000000Y-118400000D01*
X144000000Y-93600000D02*
X145000000Y-94600000D01*
X145000000Y-118400000D02*
X144000000Y-119400000D01*
X136900000Y-93600000D02*
X144000000Y-93600000D01*
X136090000Y-94410000D02*
X136900000Y-93600000D01*
X136090000Y-95500000D02*
X136090000Y-94410000D01*
%TO.N,/RED*%
X143710000Y-97190000D02*
X143710000Y-95500000D01*
X135400000Y-100000000D02*
X140900000Y-100000000D01*
X134800000Y-100600000D02*
X135400000Y-100000000D01*
X133700000Y-107200000D02*
X134800000Y-106100000D01*
X133700000Y-111600000D02*
X133700000Y-107200000D01*
X140900000Y-100000000D02*
X143710000Y-97190000D01*
X135824990Y-113724990D02*
X133700000Y-111600000D01*
X135824990Y-116214990D02*
X135824990Y-113724990D01*
X134800000Y-106100000D02*
X134800000Y-100600000D01*
X137460000Y-117850000D02*
X135824990Y-116214990D01*
%TO.N,/GRN*%
X141170000Y-97230000D02*
X141170000Y-95500000D01*
X139400000Y-99000000D02*
X141170000Y-97230000D01*
X132300000Y-100700000D02*
X134000000Y-99000000D01*
X132300000Y-104200000D02*
X132300000Y-100700000D01*
X133200000Y-105100000D02*
X132300000Y-104200000D01*
X133200000Y-116360000D02*
X133200000Y-105100000D01*
X134000000Y-99000000D02*
X139400000Y-99000000D01*
X134690000Y-117850000D02*
X133200000Y-116360000D01*
%TO.N,/BLU*%
X138630000Y-97070000D02*
X138630000Y-95500000D01*
X137700000Y-98000000D02*
X138630000Y-97070000D01*
X132400000Y-98000000D02*
X137700000Y-98000000D01*
X129750000Y-100650000D02*
X132400000Y-98000000D01*
X129750000Y-104350000D02*
X129750000Y-100650000D01*
X132600000Y-111600000D02*
X132600000Y-107200000D01*
X130824990Y-113375010D02*
X132600000Y-111600000D01*
X132600000Y-107200000D02*
X129750000Y-104350000D01*
X130824990Y-116754990D02*
X130824990Y-113375010D01*
X131920000Y-117850000D02*
X130824990Y-116754990D01*
%TO.N,/GI_INT*%
X135950000Y-93100000D02*
X133550000Y-95500000D01*
X148300000Y-94700000D02*
X146700000Y-93100000D01*
X146700000Y-93100000D02*
X135950000Y-93100000D01*
X143646411Y-120690000D02*
X148300000Y-116036411D01*
X148300000Y-116036411D02*
X148300000Y-94700000D01*
X141615000Y-120690000D02*
X143646411Y-120690000D01*
%TO.N,/BI*%
X132700000Y-92600000D02*
X131010000Y-94290000D01*
X148800000Y-94500000D02*
X146900000Y-92600000D01*
X131010000Y-94290000D02*
X131010000Y-95500000D01*
X148800000Y-105500000D02*
X148800000Y-94500000D01*
X150800000Y-114300000D02*
X150800000Y-107500000D01*
X150800000Y-107500000D02*
X148800000Y-105500000D01*
X142900000Y-122200000D02*
X150800000Y-114300000D01*
X140355000Y-122200000D02*
X142900000Y-122200000D01*
X146900000Y-92600000D02*
X132700000Y-92600000D01*
X138845000Y-120690000D02*
X140355000Y-122200000D01*
%TO.N,/HSYNC*%
X129650011Y-106350011D02*
X127344990Y-104044990D01*
X136075000Y-120690000D02*
X134685000Y-119300000D01*
X127344990Y-95575010D02*
X127420000Y-95500000D01*
X131300000Y-119300000D02*
X128200000Y-116200000D01*
X128200000Y-116200000D02*
X128200000Y-113436411D01*
X128200000Y-113436411D02*
X129650011Y-111986400D01*
X134685000Y-119300000D02*
X131300000Y-119300000D01*
X129650011Y-111986400D02*
X129650011Y-106350011D01*
X127344990Y-104044990D02*
X127344990Y-95575010D01*
X127420000Y-95500000D02*
X128470000Y-95500000D01*
%TO.N,/VSYNC*%
X124700000Y-98900000D02*
X125930000Y-97670000D01*
X125930000Y-97670000D02*
X125930000Y-95500000D01*
X124700000Y-104000000D02*
X124700000Y-98900000D01*
X126500000Y-105800000D02*
X124700000Y-104000000D01*
X125700000Y-113500000D02*
X126500000Y-112700000D01*
X125700000Y-116100000D02*
X125700000Y-113500000D01*
X130290000Y-120690000D02*
X125700000Y-116100000D01*
X133305000Y-120690000D02*
X130290000Y-120690000D01*
X126500000Y-105800000D02*
X128300000Y-105800000D01*
X128300000Y-105800000D02*
X129200000Y-106700000D01*
X129200000Y-106700000D02*
X129200000Y-111800000D01*
X128300000Y-112700000D02*
X126500000Y-112700000D01*
X129200000Y-111800000D02*
X128300000Y-112700000D01*
%TD*%
D22*
%TO.N,GND*%
X130499003Y-93726196D02*
X130469999Y-93749999D01*
X130453174Y-93770501D01*
X130208900Y-93901068D01*
X129990393Y-94080392D01*
X129811068Y-94298899D01*
X129740000Y-94431858D01*
X129668932Y-94298899D01*
X129489608Y-94080392D01*
X129271101Y-93901068D01*
X129021808Y-93767818D01*
X128751309Y-93685764D01*
X128470000Y-93658057D01*
X128188692Y-93685764D01*
X127918193Y-93767818D01*
X127668900Y-93901068D01*
X127450393Y-94080392D01*
X127271068Y-94298899D01*
X127200000Y-94431858D01*
X127128932Y-94298899D01*
X126949608Y-94080392D01*
X126731101Y-93901068D01*
X126481808Y-93767818D01*
X126211309Y-93685764D01*
X125930000Y-93658057D01*
X125648692Y-93685764D01*
X125378193Y-93767818D01*
X125128900Y-93901068D01*
X124910393Y-94080392D01*
X124731068Y-94298899D01*
X124662735Y-94426741D01*
X124512601Y-94197161D01*
X124314895Y-93995500D01*
X124081646Y-93836285D01*
X123821818Y-93725633D01*
X123739039Y-93708096D01*
X123517000Y-93830085D01*
X123517000Y-95373000D01*
X123537000Y-95373000D01*
X123537000Y-95627000D01*
X123517000Y-95627000D01*
X123517000Y-97169915D01*
X123739039Y-97291904D01*
X123821818Y-97274367D01*
X124081646Y-97163715D01*
X124314895Y-97004500D01*
X124512601Y-96802839D01*
X124662735Y-96573258D01*
X124731068Y-96701100D01*
X124910392Y-96919607D01*
X125128899Y-97098932D01*
X125170000Y-97120901D01*
X125170000Y-97355198D01*
X124188998Y-98336201D01*
X124160000Y-98359999D01*
X124136202Y-98388997D01*
X124136201Y-98388998D01*
X124065026Y-98475724D01*
X123994454Y-98607754D01*
X123973379Y-98677232D01*
X123950998Y-98751014D01*
X123950113Y-98760000D01*
X123936324Y-98900000D01*
X123940001Y-98937332D01*
X123940001Y-101387270D01*
X123671309Y-101305764D01*
X123390000Y-101278057D01*
X123108692Y-101305764D01*
X122838193Y-101387818D01*
X122588900Y-101521068D01*
X122370393Y-101700392D01*
X122191068Y-101918899D01*
X122057818Y-102168192D01*
X121975764Y-102438691D01*
X121955000Y-102649508D01*
X121955000Y-103590491D01*
X121975764Y-103801308D01*
X122057818Y-104071807D01*
X122191068Y-104321100D01*
X122370392Y-104539607D01*
X122588899Y-104718932D01*
X122838192Y-104852182D01*
X123108691Y-104934236D01*
X123390000Y-104961943D01*
X123671308Y-104934236D01*
X123941807Y-104852182D01*
X124191100Y-104718932D01*
X124275152Y-104649953D01*
X125936205Y-106311008D01*
X125959999Y-106340001D01*
X125988992Y-106363795D01*
X125988996Y-106363799D01*
X126042555Y-106407753D01*
X126075724Y-106434974D01*
X126207753Y-106505546D01*
X126351014Y-106549003D01*
X126462667Y-106560000D01*
X126462676Y-106560000D01*
X126499999Y-106563676D01*
X126537322Y-106560000D01*
X127985199Y-106560000D01*
X128406739Y-106981541D01*
X128263158Y-106922068D01*
X127976260Y-106865000D01*
X127683740Y-106865000D01*
X127396842Y-106922068D01*
X127126589Y-107034010D01*
X126883368Y-107196525D01*
X126676525Y-107403368D01*
X126560000Y-107577760D01*
X126443475Y-107403368D01*
X126236632Y-107196525D01*
X125993411Y-107034010D01*
X125723158Y-106922068D01*
X125436260Y-106865000D01*
X125143740Y-106865000D01*
X124856842Y-106922068D01*
X124586589Y-107034010D01*
X124343368Y-107196525D01*
X124211513Y-107328380D01*
X124189502Y-107255820D01*
X124130537Y-107145506D01*
X124051185Y-107048815D01*
X123954494Y-106969463D01*
X123844180Y-106910498D01*
X123724482Y-106874188D01*
X123600000Y-106861928D01*
X121900000Y-106861928D01*
X121775518Y-106874188D01*
X121655820Y-106910498D01*
X121545506Y-106969463D01*
X121448815Y-107048815D01*
X121369463Y-107145506D01*
X121310498Y-107255820D01*
X121274188Y-107375518D01*
X121261928Y-107500000D01*
X121261928Y-109200000D01*
X121274188Y-109324482D01*
X121310498Y-109444180D01*
X121369463Y-109554494D01*
X121448815Y-109651185D01*
X121545506Y-109730537D01*
X121655820Y-109789502D01*
X121775518Y-109825812D01*
X121900000Y-109838072D01*
X123600000Y-109838072D01*
X123724482Y-109825812D01*
X123844180Y-109789502D01*
X123954494Y-109730537D01*
X124051185Y-109651185D01*
X124130537Y-109554494D01*
X124189502Y-109444180D01*
X124211513Y-109371620D01*
X124343368Y-109503475D01*
X124586589Y-109665990D01*
X124856842Y-109777932D01*
X125143740Y-109835000D01*
X125436260Y-109835000D01*
X125723158Y-109777932D01*
X125993411Y-109665990D01*
X126236632Y-109503475D01*
X126443475Y-109296632D01*
X126560000Y-109122240D01*
X126676525Y-109296632D01*
X126883368Y-109503475D01*
X127126589Y-109665990D01*
X127396842Y-109777932D01*
X127683740Y-109835000D01*
X127976260Y-109835000D01*
X128263158Y-109777932D01*
X128440001Y-109704682D01*
X128440001Y-111485197D01*
X127985199Y-111940000D01*
X126537323Y-111940000D01*
X126500000Y-111936324D01*
X126462677Y-111940000D01*
X126462667Y-111940000D01*
X126351014Y-111950997D01*
X126207753Y-111994454D01*
X126075724Y-112065026D01*
X125959999Y-112159999D01*
X125936201Y-112188998D01*
X125188998Y-112936201D01*
X125160000Y-112959999D01*
X125136202Y-112988997D01*
X125136201Y-112988998D01*
X125065026Y-113075724D01*
X124994454Y-113207754D01*
X124985002Y-113238915D01*
X124785750Y-113240000D01*
X124627000Y-113398750D01*
X124627000Y-114723000D01*
X124647000Y-114723000D01*
X124647000Y-114977000D01*
X124627000Y-114977000D01*
X124627000Y-116301250D01*
X124785750Y-116460000D01*
X125031384Y-116461337D01*
X125065026Y-116524276D01*
X125104871Y-116572826D01*
X125159999Y-116640001D01*
X125163228Y-116642651D01*
X124936929Y-116622352D01*
X124420841Y-116677727D01*
X123925474Y-116832721D01*
X123508228Y-117055742D01*
X123292106Y-117422501D01*
X124960000Y-119090395D01*
X124974143Y-119076253D01*
X125153748Y-119255858D01*
X125139605Y-119270000D01*
X126807499Y-120937894D01*
X127174258Y-120721772D01*
X127414938Y-120261895D01*
X127561275Y-119763902D01*
X127607648Y-119246929D01*
X127587879Y-119062680D01*
X129726200Y-121201002D01*
X129749999Y-121230001D01*
X129865724Y-121324974D01*
X129997753Y-121395546D01*
X130141014Y-121439003D01*
X130252667Y-121450000D01*
X130252676Y-121450000D01*
X130289999Y-121453676D01*
X130327322Y-121450000D01*
X132086957Y-121450000D01*
X132190363Y-121604759D01*
X132390241Y-121804637D01*
X132625273Y-121961680D01*
X132886426Y-122069853D01*
X133163665Y-122125000D01*
X133446335Y-122125000D01*
X133723574Y-122069853D01*
X133984727Y-121961680D01*
X134219759Y-121804637D01*
X134419637Y-121604759D01*
X134576680Y-121369727D01*
X134684853Y-121108574D01*
X134690000Y-121082699D01*
X134695147Y-121108574D01*
X134803320Y-121369727D01*
X134960363Y-121604759D01*
X135160241Y-121804637D01*
X135395273Y-121961680D01*
X135656426Y-122069853D01*
X135933665Y-122125000D01*
X136216335Y-122125000D01*
X136493574Y-122069853D01*
X136754727Y-121961680D01*
X136989759Y-121804637D01*
X137189637Y-121604759D01*
X137346680Y-121369727D01*
X137454853Y-121108574D01*
X137460000Y-121082699D01*
X137465147Y-121108574D01*
X137573320Y-121369727D01*
X137730363Y-121604759D01*
X137930241Y-121804637D01*
X138165273Y-121961680D01*
X138426426Y-122069853D01*
X138703665Y-122125000D01*
X138986335Y-122125000D01*
X139168886Y-122088688D01*
X139791205Y-122711008D01*
X139814999Y-122740001D01*
X139843992Y-122763795D01*
X139843996Y-122763799D01*
X139891370Y-122802677D01*
X139930724Y-122834974D01*
X140062753Y-122905546D01*
X140206014Y-122949003D01*
X140317667Y-122960000D01*
X140317676Y-122960000D01*
X140354999Y-122963676D01*
X140392322Y-122960000D01*
X142862678Y-122960000D01*
X142900000Y-122963676D01*
X142937322Y-122960000D01*
X142937333Y-122960000D01*
X143048986Y-122949003D01*
X143192247Y-122905546D01*
X143324276Y-122834974D01*
X143440001Y-122740001D01*
X143463804Y-122710997D01*
X145057302Y-121117499D01*
X148292106Y-121117499D01*
X148508228Y-121484258D01*
X148968105Y-121724938D01*
X149466098Y-121871275D01*
X149983071Y-121917648D01*
X150499159Y-121862273D01*
X150994526Y-121707279D01*
X151411772Y-121484258D01*
X151627894Y-121117499D01*
X149960000Y-119449605D01*
X148292106Y-121117499D01*
X145057302Y-121117499D01*
X147354786Y-118820016D01*
X147312352Y-119293071D01*
X147367727Y-119809159D01*
X147522721Y-120304526D01*
X147745742Y-120721772D01*
X148112501Y-120937894D01*
X149780395Y-119270000D01*
X150139605Y-119270000D01*
X151807499Y-120937894D01*
X152174258Y-120721772D01*
X152414938Y-120261895D01*
X152561275Y-119763902D01*
X152607648Y-119246929D01*
X152552273Y-118730841D01*
X152397279Y-118235474D01*
X152174258Y-117818228D01*
X151807499Y-117602106D01*
X150139605Y-119270000D01*
X149780395Y-119270000D01*
X149766253Y-119255858D01*
X149945858Y-119076253D01*
X149960000Y-119090395D01*
X151627894Y-117422501D01*
X151411772Y-117055742D01*
X150951895Y-116815062D01*
X150453902Y-116668725D01*
X149936929Y-116622352D01*
X149506238Y-116668564D01*
X151311004Y-114863798D01*
X151340001Y-114840001D01*
X151366332Y-114807917D01*
X151434974Y-114724277D01*
X151505546Y-114592247D01*
X151541417Y-114473993D01*
X151549003Y-114448986D01*
X151560000Y-114337333D01*
X151560000Y-114337324D01*
X151563676Y-114300001D01*
X151560000Y-114262678D01*
X151560000Y-109741961D01*
X151646842Y-109777932D01*
X151933740Y-109835000D01*
X152226260Y-109835000D01*
X152513158Y-109777932D01*
X152783411Y-109665990D01*
X153026632Y-109503475D01*
X153233475Y-109296632D01*
X153395990Y-109053411D01*
X153507932Y-108783158D01*
X153565000Y-108496260D01*
X153565000Y-108203740D01*
X153507932Y-107916842D01*
X153395990Y-107646589D01*
X153233475Y-107403368D01*
X153026632Y-107196525D01*
X152783411Y-107034010D01*
X152513158Y-106922068D01*
X152226260Y-106865000D01*
X151933740Y-106865000D01*
X151646842Y-106922068D01*
X151394613Y-107026544D01*
X151363799Y-106988997D01*
X151340001Y-106959999D01*
X151311003Y-106936201D01*
X149560000Y-105185199D01*
X149560000Y-99250000D01*
X152861928Y-99250000D01*
X152861928Y-100450000D01*
X152878992Y-100623254D01*
X152929528Y-100789850D01*
X153011595Y-100943386D01*
X153122038Y-101077962D01*
X153256614Y-101188405D01*
X153410150Y-101270472D01*
X153576746Y-101321008D01*
X153750000Y-101338072D01*
X155250000Y-101338072D01*
X155423254Y-101321008D01*
X155589850Y-101270472D01*
X155743386Y-101188405D01*
X155877962Y-101077962D01*
X155988405Y-100943386D01*
X156070472Y-100789850D01*
X156121008Y-100623254D01*
X156138072Y-100450000D01*
X156138072Y-99250000D01*
X156121008Y-99076746D01*
X156070472Y-98910150D01*
X155988405Y-98756614D01*
X155877962Y-98622038D01*
X155743386Y-98511595D01*
X155641407Y-98457086D01*
X155641795Y-98456802D01*
X155838664Y-98242046D01*
X155989854Y-97993009D01*
X156089554Y-97719261D01*
X156091476Y-97706890D01*
X155970155Y-97477000D01*
X154627000Y-97477000D01*
X154627000Y-97497000D01*
X154373000Y-97497000D01*
X154373000Y-97477000D01*
X153029845Y-97477000D01*
X152908524Y-97706890D01*
X152910446Y-97719261D01*
X153010146Y-97993009D01*
X153161336Y-98242046D01*
X153358205Y-98456802D01*
X153358593Y-98457086D01*
X153256614Y-98511595D01*
X153122038Y-98622038D01*
X153011595Y-98756614D01*
X152929528Y-98910150D01*
X152878992Y-99076746D01*
X152861928Y-99250000D01*
X149560000Y-99250000D01*
X149560000Y-96993110D01*
X152908524Y-96993110D01*
X153029845Y-97223000D01*
X154373000Y-97223000D01*
X154373000Y-96022768D01*
X154627000Y-96022768D01*
X154627000Y-97223000D01*
X155970155Y-97223000D01*
X156091476Y-96993110D01*
X156089554Y-96980739D01*
X155989854Y-96706991D01*
X155838664Y-96457954D01*
X155641795Y-96243198D01*
X155406812Y-96070975D01*
X155142745Y-95947904D01*
X154859742Y-95878715D01*
X154627000Y-96022768D01*
X154373000Y-96022768D01*
X154140258Y-95878715D01*
X153857255Y-95947904D01*
X153593188Y-96070975D01*
X153358205Y-96243198D01*
X153161336Y-96457954D01*
X153010146Y-96706991D01*
X152910446Y-96980739D01*
X152908524Y-96993110D01*
X149560000Y-96993110D01*
X149560000Y-94537325D01*
X149563676Y-94500000D01*
X149560000Y-94462675D01*
X149560000Y-94462667D01*
X149549003Y-94351014D01*
X149505546Y-94207753D01*
X149434974Y-94075724D01*
X149340001Y-93959999D01*
X149311003Y-93936201D01*
X148034801Y-92660000D01*
X156167721Y-92660000D01*
X156712163Y-92713383D01*
X157204822Y-92862126D01*
X157659204Y-93103725D01*
X158058007Y-93428982D01*
X158386037Y-93825503D01*
X158630800Y-94278184D01*
X158782979Y-94769795D01*
X158840000Y-95312309D01*
X158840001Y-120667711D01*
X158786617Y-121212163D01*
X158637876Y-121704818D01*
X158396277Y-122159200D01*
X158071022Y-122558003D01*
X157674503Y-122886033D01*
X157221817Y-123130799D01*
X156730206Y-123282979D01*
X156187690Y-123340000D01*
X121532419Y-123340000D01*
X121500000Y-123336807D01*
X121467581Y-123340000D01*
X121370617Y-123349550D01*
X121246207Y-123387290D01*
X121131550Y-123448575D01*
X121031052Y-123531052D01*
X120948575Y-123631550D01*
X120887290Y-123746207D01*
X120849550Y-123870617D01*
X120836807Y-124000000D01*
X120840000Y-124032420D01*
X120840001Y-127967711D01*
X120811375Y-128259660D01*
X120735965Y-128509429D01*
X120613477Y-128739794D01*
X120448579Y-128941979D01*
X120247546Y-129108288D01*
X120018046Y-129232378D01*
X119768805Y-129309531D01*
X119478911Y-129340000D01*
X114940639Y-129340000D01*
X115072428Y-129152033D01*
X112800000Y-126879605D01*
X112785858Y-126893748D01*
X112606253Y-126714143D01*
X112620395Y-126700000D01*
X112979605Y-126700000D01*
X115252033Y-128972428D01*
X115705850Y-128654243D01*
X116031269Y-128049790D01*
X116232512Y-127393465D01*
X116246294Y-127257707D01*
X116250867Y-127264591D01*
X116256741Y-127271691D01*
X116444916Y-127495949D01*
X116487646Y-127537793D01*
X116529805Y-127580248D01*
X116536947Y-127586072D01*
X116765097Y-127769509D01*
X116815131Y-127802251D01*
X116864742Y-127835714D01*
X116872878Y-127840040D01*
X117132313Y-127975670D01*
X117187785Y-127998082D01*
X117242923Y-128021260D01*
X117251741Y-128023922D01*
X117251747Y-128023924D01*
X117532583Y-128106578D01*
X117591331Y-128117785D01*
X117649941Y-128129816D01*
X117659110Y-128130715D01*
X117659112Y-128130715D01*
X117950656Y-128157247D01*
X118010472Y-128156829D01*
X118070288Y-128157247D01*
X118079460Y-128156348D01*
X118370605Y-128125748D01*
X118429217Y-128113717D01*
X118487963Y-128102511D01*
X118496784Y-128099847D01*
X118776440Y-128013279D01*
X118831578Y-127990101D01*
X118887050Y-127967689D01*
X118895181Y-127963365D01*
X118895185Y-127963363D01*
X118895188Y-127963361D01*
X119152702Y-127824123D01*
X119202259Y-127790696D01*
X119252347Y-127757920D01*
X119259488Y-127752095D01*
X119485056Y-127565490D01*
X119527215Y-127523035D01*
X119569945Y-127481191D01*
X119575819Y-127474091D01*
X119760845Y-127247227D01*
X119793927Y-127197434D01*
X119827745Y-127148045D01*
X119832127Y-127139939D01*
X119969564Y-126881458D01*
X119992355Y-126826164D01*
X120015925Y-126771171D01*
X120018650Y-126762368D01*
X120103264Y-126482113D01*
X120114882Y-126423436D01*
X120127320Y-126364921D01*
X120128283Y-126355756D01*
X120156850Y-126064404D01*
X120156850Y-126064402D01*
X120160000Y-126032419D01*
X120160000Y-121117499D01*
X123292106Y-121117499D01*
X123508228Y-121484258D01*
X123968105Y-121724938D01*
X124466098Y-121871275D01*
X124983071Y-121917648D01*
X125499159Y-121862273D01*
X125994526Y-121707279D01*
X126411772Y-121484258D01*
X126627894Y-121117499D01*
X124960000Y-119449605D01*
X123292106Y-121117499D01*
X120160000Y-121117499D01*
X120160000Y-119293071D01*
X122312352Y-119293071D01*
X122367727Y-119809159D01*
X122522721Y-120304526D01*
X122745742Y-120721772D01*
X123112501Y-120937894D01*
X124780395Y-119270000D01*
X123112501Y-117602106D01*
X122745742Y-117818228D01*
X122505062Y-118278105D01*
X122358725Y-118776098D01*
X122312352Y-119293071D01*
X120160000Y-119293071D01*
X120160000Y-115825000D01*
X123011928Y-115825000D01*
X123024188Y-115949482D01*
X123060498Y-116069180D01*
X123119463Y-116179494D01*
X123198815Y-116276185D01*
X123295506Y-116355537D01*
X123405820Y-116414502D01*
X123525518Y-116450812D01*
X123650000Y-116463072D01*
X124214250Y-116460000D01*
X124373000Y-116301250D01*
X124373000Y-114977000D01*
X123173750Y-114977000D01*
X123015000Y-115135750D01*
X123011928Y-115825000D01*
X120160000Y-115825000D01*
X120160000Y-113875000D01*
X123011928Y-113875000D01*
X123015000Y-114564250D01*
X123173750Y-114723000D01*
X124373000Y-114723000D01*
X124373000Y-113398750D01*
X124214250Y-113240000D01*
X123650000Y-113236928D01*
X123525518Y-113249188D01*
X123405820Y-113285498D01*
X123295506Y-113344463D01*
X123198815Y-113423815D01*
X123119463Y-113520506D01*
X123060498Y-113630820D01*
X123024188Y-113750518D01*
X123011928Y-113875000D01*
X120160000Y-113875000D01*
X120160000Y-102967581D01*
X120156704Y-102934116D01*
X120156704Y-102914651D01*
X120155741Y-102905486D01*
X120123108Y-102614561D01*
X120110669Y-102556044D01*
X120099052Y-102497371D01*
X120096327Y-102488568D01*
X120007809Y-102209523D01*
X119984263Y-102154588D01*
X119961449Y-102099235D01*
X119957065Y-102091129D01*
X119816032Y-101834592D01*
X119782245Y-101785247D01*
X119749133Y-101735409D01*
X119743259Y-101728309D01*
X119555084Y-101504051D01*
X119512354Y-101462207D01*
X119470194Y-101419751D01*
X119463053Y-101413927D01*
X119234903Y-101230491D01*
X119184861Y-101197744D01*
X119135258Y-101164286D01*
X119127121Y-101159960D01*
X118867687Y-101024330D01*
X118812215Y-101001918D01*
X118757077Y-100978740D01*
X118748259Y-100976078D01*
X118748253Y-100976076D01*
X118467417Y-100893422D01*
X118408716Y-100882224D01*
X118350060Y-100870184D01*
X118340888Y-100869285D01*
X118049344Y-100842753D01*
X117989528Y-100843171D01*
X117929712Y-100842753D01*
X117920541Y-100843652D01*
X117629395Y-100874252D01*
X117570753Y-100886290D01*
X117512037Y-100897490D01*
X117503216Y-100900153D01*
X117223560Y-100986721D01*
X117168422Y-101009899D01*
X117112950Y-101032311D01*
X117104819Y-101036635D01*
X117104815Y-101036637D01*
X117104814Y-101036638D01*
X116847298Y-101175877D01*
X116797749Y-101209299D01*
X116747653Y-101242080D01*
X116740512Y-101247905D01*
X116514945Y-101434510D01*
X116472804Y-101476946D01*
X116430055Y-101518809D01*
X116424181Y-101525909D01*
X116239155Y-101752773D01*
X116206055Y-101802592D01*
X116172256Y-101851955D01*
X116167873Y-101860061D01*
X116030436Y-102118542D01*
X116007645Y-102173836D01*
X115984075Y-102228829D01*
X115981350Y-102237632D01*
X115896736Y-102517886D01*
X115885116Y-102576571D01*
X115872680Y-102635079D01*
X115871717Y-102644244D01*
X115843150Y-102935596D01*
X115843150Y-102935608D01*
X115840001Y-102967581D01*
X115840000Y-124994032D01*
X115717506Y-124763201D01*
X115705850Y-124745757D01*
X115252033Y-124427572D01*
X112979605Y-126700000D01*
X112620395Y-126700000D01*
X110347967Y-124427572D01*
X110160000Y-124559361D01*
X110160000Y-124247967D01*
X110527572Y-124247967D01*
X112800000Y-126520395D01*
X115072428Y-124247967D01*
X114754243Y-123794150D01*
X114149790Y-123468731D01*
X113493465Y-123267488D01*
X112810490Y-123198155D01*
X112127112Y-123263395D01*
X111469593Y-123460702D01*
X110863201Y-123782494D01*
X110845757Y-123794150D01*
X110527572Y-124247967D01*
X110160000Y-124247967D01*
X110160000Y-97752033D01*
X110527572Y-97752033D01*
X110845757Y-98205850D01*
X111450210Y-98531269D01*
X112106535Y-98732512D01*
X112789510Y-98801845D01*
X113472888Y-98736605D01*
X114130407Y-98539298D01*
X114736799Y-98217506D01*
X114754243Y-98205850D01*
X115072428Y-97752033D01*
X112800000Y-95479605D01*
X110527572Y-97752033D01*
X110160000Y-97752033D01*
X110160000Y-97440639D01*
X110347967Y-97572428D01*
X112620395Y-95300000D01*
X112979605Y-95300000D01*
X115252033Y-97572428D01*
X115705850Y-97254243D01*
X116031269Y-96649790D01*
X116232512Y-95993465D01*
X116269714Y-95627000D01*
X121955000Y-95627000D01*
X121955000Y-96027000D01*
X122007350Y-96304514D01*
X122112834Y-96566483D01*
X122267399Y-96802839D01*
X122465105Y-97004500D01*
X122698354Y-97163715D01*
X122958182Y-97274367D01*
X123040961Y-97291904D01*
X123263000Y-97169915D01*
X123263000Y-95627000D01*
X121955000Y-95627000D01*
X116269714Y-95627000D01*
X116301845Y-95310490D01*
X116269626Y-94973000D01*
X121955000Y-94973000D01*
X121955000Y-95373000D01*
X123263000Y-95373000D01*
X123263000Y-93830085D01*
X123040961Y-93708096D01*
X122958182Y-93725633D01*
X122698354Y-93836285D01*
X122465105Y-93995500D01*
X122267399Y-94197161D01*
X122112834Y-94433517D01*
X122007350Y-94695486D01*
X121955000Y-94973000D01*
X116269626Y-94973000D01*
X116236605Y-94627112D01*
X116039298Y-93969593D01*
X115717506Y-93363201D01*
X115705850Y-93345757D01*
X115252033Y-93027572D01*
X112979605Y-95300000D01*
X112620395Y-95300000D01*
X112606253Y-95285858D01*
X112785858Y-95106253D01*
X112800000Y-95120395D01*
X115072428Y-92847967D01*
X114940639Y-92660000D01*
X131565198Y-92660000D01*
X130499003Y-93726196D01*
%TA.AperFunction,Conductor*%
D23*
G36*
X130499003Y-93726196D02*
G01*
X130469999Y-93749999D01*
X130453174Y-93770501D01*
X130208900Y-93901068D01*
X129990393Y-94080392D01*
X129811068Y-94298899D01*
X129740000Y-94431858D01*
X129668932Y-94298899D01*
X129489608Y-94080392D01*
X129271101Y-93901068D01*
X129021808Y-93767818D01*
X128751309Y-93685764D01*
X128470000Y-93658057D01*
X128188692Y-93685764D01*
X127918193Y-93767818D01*
X127668900Y-93901068D01*
X127450393Y-94080392D01*
X127271068Y-94298899D01*
X127200000Y-94431858D01*
X127128932Y-94298899D01*
X126949608Y-94080392D01*
X126731101Y-93901068D01*
X126481808Y-93767818D01*
X126211309Y-93685764D01*
X125930000Y-93658057D01*
X125648692Y-93685764D01*
X125378193Y-93767818D01*
X125128900Y-93901068D01*
X124910393Y-94080392D01*
X124731068Y-94298899D01*
X124662735Y-94426741D01*
X124512601Y-94197161D01*
X124314895Y-93995500D01*
X124081646Y-93836285D01*
X123821818Y-93725633D01*
X123739039Y-93708096D01*
X123517000Y-93830085D01*
X123517000Y-95373000D01*
X123537000Y-95373000D01*
X123537000Y-95627000D01*
X123517000Y-95627000D01*
X123517000Y-97169915D01*
X123739039Y-97291904D01*
X123821818Y-97274367D01*
X124081646Y-97163715D01*
X124314895Y-97004500D01*
X124512601Y-96802839D01*
X124662735Y-96573258D01*
X124731068Y-96701100D01*
X124910392Y-96919607D01*
X125128899Y-97098932D01*
X125170000Y-97120901D01*
X125170000Y-97355198D01*
X124188998Y-98336201D01*
X124160000Y-98359999D01*
X124136202Y-98388997D01*
X124136201Y-98388998D01*
X124065026Y-98475724D01*
X123994454Y-98607754D01*
X123973379Y-98677232D01*
X123950998Y-98751014D01*
X123950113Y-98760000D01*
X123936324Y-98900000D01*
X123940001Y-98937332D01*
X123940001Y-101387270D01*
X123671309Y-101305764D01*
X123390000Y-101278057D01*
X123108692Y-101305764D01*
X122838193Y-101387818D01*
X122588900Y-101521068D01*
X122370393Y-101700392D01*
X122191068Y-101918899D01*
X122057818Y-102168192D01*
X121975764Y-102438691D01*
X121955000Y-102649508D01*
X121955000Y-103590491D01*
X121975764Y-103801308D01*
X122057818Y-104071807D01*
X122191068Y-104321100D01*
X122370392Y-104539607D01*
X122588899Y-104718932D01*
X122838192Y-104852182D01*
X123108691Y-104934236D01*
X123390000Y-104961943D01*
X123671308Y-104934236D01*
X123941807Y-104852182D01*
X124191100Y-104718932D01*
X124275152Y-104649953D01*
X125936205Y-106311008D01*
X125959999Y-106340001D01*
X125988992Y-106363795D01*
X125988996Y-106363799D01*
X126042555Y-106407753D01*
X126075724Y-106434974D01*
X126207753Y-106505546D01*
X126351014Y-106549003D01*
X126462667Y-106560000D01*
X126462676Y-106560000D01*
X126499999Y-106563676D01*
X126537322Y-106560000D01*
X127985199Y-106560000D01*
X128406739Y-106981541D01*
X128263158Y-106922068D01*
X127976260Y-106865000D01*
X127683740Y-106865000D01*
X127396842Y-106922068D01*
X127126589Y-107034010D01*
X126883368Y-107196525D01*
X126676525Y-107403368D01*
X126560000Y-107577760D01*
X126443475Y-107403368D01*
X126236632Y-107196525D01*
X125993411Y-107034010D01*
X125723158Y-106922068D01*
X125436260Y-106865000D01*
X125143740Y-106865000D01*
X124856842Y-106922068D01*
X124586589Y-107034010D01*
X124343368Y-107196525D01*
X124211513Y-107328380D01*
X124189502Y-107255820D01*
X124130537Y-107145506D01*
X124051185Y-107048815D01*
X123954494Y-106969463D01*
X123844180Y-106910498D01*
X123724482Y-106874188D01*
X123600000Y-106861928D01*
X121900000Y-106861928D01*
X121775518Y-106874188D01*
X121655820Y-106910498D01*
X121545506Y-106969463D01*
X121448815Y-107048815D01*
X121369463Y-107145506D01*
X121310498Y-107255820D01*
X121274188Y-107375518D01*
X121261928Y-107500000D01*
X121261928Y-109200000D01*
X121274188Y-109324482D01*
X121310498Y-109444180D01*
X121369463Y-109554494D01*
X121448815Y-109651185D01*
X121545506Y-109730537D01*
X121655820Y-109789502D01*
X121775518Y-109825812D01*
X121900000Y-109838072D01*
X123600000Y-109838072D01*
X123724482Y-109825812D01*
X123844180Y-109789502D01*
X123954494Y-109730537D01*
X124051185Y-109651185D01*
X124130537Y-109554494D01*
X124189502Y-109444180D01*
X124211513Y-109371620D01*
X124343368Y-109503475D01*
X124586589Y-109665990D01*
X124856842Y-109777932D01*
X125143740Y-109835000D01*
X125436260Y-109835000D01*
X125723158Y-109777932D01*
X125993411Y-109665990D01*
X126236632Y-109503475D01*
X126443475Y-109296632D01*
X126560000Y-109122240D01*
X126676525Y-109296632D01*
X126883368Y-109503475D01*
X127126589Y-109665990D01*
X127396842Y-109777932D01*
X127683740Y-109835000D01*
X127976260Y-109835000D01*
X128263158Y-109777932D01*
X128440001Y-109704682D01*
X128440001Y-111485197D01*
X127985199Y-111940000D01*
X126537323Y-111940000D01*
X126500000Y-111936324D01*
X126462677Y-111940000D01*
X126462667Y-111940000D01*
X126351014Y-111950997D01*
X126207753Y-111994454D01*
X126075724Y-112065026D01*
X125959999Y-112159999D01*
X125936201Y-112188998D01*
X125188998Y-112936201D01*
X125160000Y-112959999D01*
X125136202Y-112988997D01*
X125136201Y-112988998D01*
X125065026Y-113075724D01*
X124994454Y-113207754D01*
X124985002Y-113238915D01*
X124785750Y-113240000D01*
X124627000Y-113398750D01*
X124627000Y-114723000D01*
X124647000Y-114723000D01*
X124647000Y-114977000D01*
X124627000Y-114977000D01*
X124627000Y-116301250D01*
X124785750Y-116460000D01*
X125031384Y-116461337D01*
X125065026Y-116524276D01*
X125104871Y-116572826D01*
X125159999Y-116640001D01*
X125163228Y-116642651D01*
X124936929Y-116622352D01*
X124420841Y-116677727D01*
X123925474Y-116832721D01*
X123508228Y-117055742D01*
X123292106Y-117422501D01*
X124960000Y-119090395D01*
X124974143Y-119076253D01*
X125153748Y-119255858D01*
X125139605Y-119270000D01*
X126807499Y-120937894D01*
X127174258Y-120721772D01*
X127414938Y-120261895D01*
X127561275Y-119763902D01*
X127607648Y-119246929D01*
X127587879Y-119062680D01*
X129726200Y-121201002D01*
X129749999Y-121230001D01*
X129865724Y-121324974D01*
X129997753Y-121395546D01*
X130141014Y-121439003D01*
X130252667Y-121450000D01*
X130252676Y-121450000D01*
X130289999Y-121453676D01*
X130327322Y-121450000D01*
X132086957Y-121450000D01*
X132190363Y-121604759D01*
X132390241Y-121804637D01*
X132625273Y-121961680D01*
X132886426Y-122069853D01*
X133163665Y-122125000D01*
X133446335Y-122125000D01*
X133723574Y-122069853D01*
X133984727Y-121961680D01*
X134219759Y-121804637D01*
X134419637Y-121604759D01*
X134576680Y-121369727D01*
X134684853Y-121108574D01*
X134690000Y-121082699D01*
X134695147Y-121108574D01*
X134803320Y-121369727D01*
X134960363Y-121604759D01*
X135160241Y-121804637D01*
X135395273Y-121961680D01*
X135656426Y-122069853D01*
X135933665Y-122125000D01*
X136216335Y-122125000D01*
X136493574Y-122069853D01*
X136754727Y-121961680D01*
X136989759Y-121804637D01*
X137189637Y-121604759D01*
X137346680Y-121369727D01*
X137454853Y-121108574D01*
X137460000Y-121082699D01*
X137465147Y-121108574D01*
X137573320Y-121369727D01*
X137730363Y-121604759D01*
X137930241Y-121804637D01*
X138165273Y-121961680D01*
X138426426Y-122069853D01*
X138703665Y-122125000D01*
X138986335Y-122125000D01*
X139168886Y-122088688D01*
X139791205Y-122711008D01*
X139814999Y-122740001D01*
X139843992Y-122763795D01*
X139843996Y-122763799D01*
X139891370Y-122802677D01*
X139930724Y-122834974D01*
X140062753Y-122905546D01*
X140206014Y-122949003D01*
X140317667Y-122960000D01*
X140317676Y-122960000D01*
X140354999Y-122963676D01*
X140392322Y-122960000D01*
X142862678Y-122960000D01*
X142900000Y-122963676D01*
X142937322Y-122960000D01*
X142937333Y-122960000D01*
X143048986Y-122949003D01*
X143192247Y-122905546D01*
X143324276Y-122834974D01*
X143440001Y-122740001D01*
X143463804Y-122710997D01*
X145057302Y-121117499D01*
X148292106Y-121117499D01*
X148508228Y-121484258D01*
X148968105Y-121724938D01*
X149466098Y-121871275D01*
X149983071Y-121917648D01*
X150499159Y-121862273D01*
X150994526Y-121707279D01*
X151411772Y-121484258D01*
X151627894Y-121117499D01*
X149960000Y-119449605D01*
X148292106Y-121117499D01*
X145057302Y-121117499D01*
X147354786Y-118820016D01*
X147312352Y-119293071D01*
X147367727Y-119809159D01*
X147522721Y-120304526D01*
X147745742Y-120721772D01*
X148112501Y-120937894D01*
X149780395Y-119270000D01*
X150139605Y-119270000D01*
X151807499Y-120937894D01*
X152174258Y-120721772D01*
X152414938Y-120261895D01*
X152561275Y-119763902D01*
X152607648Y-119246929D01*
X152552273Y-118730841D01*
X152397279Y-118235474D01*
X152174258Y-117818228D01*
X151807499Y-117602106D01*
X150139605Y-119270000D01*
X149780395Y-119270000D01*
X149766253Y-119255858D01*
X149945858Y-119076253D01*
X149960000Y-119090395D01*
X151627894Y-117422501D01*
X151411772Y-117055742D01*
X150951895Y-116815062D01*
X150453902Y-116668725D01*
X149936929Y-116622352D01*
X149506238Y-116668564D01*
X151311004Y-114863798D01*
X151340001Y-114840001D01*
X151366332Y-114807917D01*
X151434974Y-114724277D01*
X151505546Y-114592247D01*
X151541417Y-114473993D01*
X151549003Y-114448986D01*
X151560000Y-114337333D01*
X151560000Y-114337324D01*
X151563676Y-114300001D01*
X151560000Y-114262678D01*
X151560000Y-109741961D01*
X151646842Y-109777932D01*
X151933740Y-109835000D01*
X152226260Y-109835000D01*
X152513158Y-109777932D01*
X152783411Y-109665990D01*
X153026632Y-109503475D01*
X153233475Y-109296632D01*
X153395990Y-109053411D01*
X153507932Y-108783158D01*
X153565000Y-108496260D01*
X153565000Y-108203740D01*
X153507932Y-107916842D01*
X153395990Y-107646589D01*
X153233475Y-107403368D01*
X153026632Y-107196525D01*
X152783411Y-107034010D01*
X152513158Y-106922068D01*
X152226260Y-106865000D01*
X151933740Y-106865000D01*
X151646842Y-106922068D01*
X151394613Y-107026544D01*
X151363799Y-106988997D01*
X151340001Y-106959999D01*
X151311003Y-106936201D01*
X149560000Y-105185199D01*
X149560000Y-99250000D01*
X152861928Y-99250000D01*
X152861928Y-100450000D01*
X152878992Y-100623254D01*
X152929528Y-100789850D01*
X153011595Y-100943386D01*
X153122038Y-101077962D01*
X153256614Y-101188405D01*
X153410150Y-101270472D01*
X153576746Y-101321008D01*
X153750000Y-101338072D01*
X155250000Y-101338072D01*
X155423254Y-101321008D01*
X155589850Y-101270472D01*
X155743386Y-101188405D01*
X155877962Y-101077962D01*
X155988405Y-100943386D01*
X156070472Y-100789850D01*
X156121008Y-100623254D01*
X156138072Y-100450000D01*
X156138072Y-99250000D01*
X156121008Y-99076746D01*
X156070472Y-98910150D01*
X155988405Y-98756614D01*
X155877962Y-98622038D01*
X155743386Y-98511595D01*
X155641407Y-98457086D01*
X155641795Y-98456802D01*
X155838664Y-98242046D01*
X155989854Y-97993009D01*
X156089554Y-97719261D01*
X156091476Y-97706890D01*
X155970155Y-97477000D01*
X154627000Y-97477000D01*
X154627000Y-97497000D01*
X154373000Y-97497000D01*
X154373000Y-97477000D01*
X153029845Y-97477000D01*
X152908524Y-97706890D01*
X152910446Y-97719261D01*
X153010146Y-97993009D01*
X153161336Y-98242046D01*
X153358205Y-98456802D01*
X153358593Y-98457086D01*
X153256614Y-98511595D01*
X153122038Y-98622038D01*
X153011595Y-98756614D01*
X152929528Y-98910150D01*
X152878992Y-99076746D01*
X152861928Y-99250000D01*
X149560000Y-99250000D01*
X149560000Y-96993110D01*
X152908524Y-96993110D01*
X153029845Y-97223000D01*
X154373000Y-97223000D01*
X154373000Y-96022768D01*
X154627000Y-96022768D01*
X154627000Y-97223000D01*
X155970155Y-97223000D01*
X156091476Y-96993110D01*
X156089554Y-96980739D01*
X155989854Y-96706991D01*
X155838664Y-96457954D01*
X155641795Y-96243198D01*
X155406812Y-96070975D01*
X155142745Y-95947904D01*
X154859742Y-95878715D01*
X154627000Y-96022768D01*
X154373000Y-96022768D01*
X154140258Y-95878715D01*
X153857255Y-95947904D01*
X153593188Y-96070975D01*
X153358205Y-96243198D01*
X153161336Y-96457954D01*
X153010146Y-96706991D01*
X152910446Y-96980739D01*
X152908524Y-96993110D01*
X149560000Y-96993110D01*
X149560000Y-94537325D01*
X149563676Y-94500000D01*
X149560000Y-94462675D01*
X149560000Y-94462667D01*
X149549003Y-94351014D01*
X149505546Y-94207753D01*
X149434974Y-94075724D01*
X149340001Y-93959999D01*
X149311003Y-93936201D01*
X148034801Y-92660000D01*
X156167721Y-92660000D01*
X156712163Y-92713383D01*
X157204822Y-92862126D01*
X157659204Y-93103725D01*
X158058007Y-93428982D01*
X158386037Y-93825503D01*
X158630800Y-94278184D01*
X158782979Y-94769795D01*
X158840000Y-95312309D01*
X158840001Y-120667711D01*
X158786617Y-121212163D01*
X158637876Y-121704818D01*
X158396277Y-122159200D01*
X158071022Y-122558003D01*
X157674503Y-122886033D01*
X157221817Y-123130799D01*
X156730206Y-123282979D01*
X156187690Y-123340000D01*
X121532419Y-123340000D01*
X121500000Y-123336807D01*
X121467581Y-123340000D01*
X121370617Y-123349550D01*
X121246207Y-123387290D01*
X121131550Y-123448575D01*
X121031052Y-123531052D01*
X120948575Y-123631550D01*
X120887290Y-123746207D01*
X120849550Y-123870617D01*
X120836807Y-124000000D01*
X120840000Y-124032420D01*
X120840001Y-127967711D01*
X120811375Y-128259660D01*
X120735965Y-128509429D01*
X120613477Y-128739794D01*
X120448579Y-128941979D01*
X120247546Y-129108288D01*
X120018046Y-129232378D01*
X119768805Y-129309531D01*
X119478911Y-129340000D01*
X114940639Y-129340000D01*
X115072428Y-129152033D01*
X112800000Y-126879605D01*
X112785858Y-126893748D01*
X112606253Y-126714143D01*
X112620395Y-126700000D01*
X112979605Y-126700000D01*
X115252033Y-128972428D01*
X115705850Y-128654243D01*
X116031269Y-128049790D01*
X116232512Y-127393465D01*
X116246294Y-127257707D01*
X116250867Y-127264591D01*
X116256741Y-127271691D01*
X116444916Y-127495949D01*
X116487646Y-127537793D01*
X116529805Y-127580248D01*
X116536947Y-127586072D01*
X116765097Y-127769509D01*
X116815131Y-127802251D01*
X116864742Y-127835714D01*
X116872878Y-127840040D01*
X117132313Y-127975670D01*
X117187785Y-127998082D01*
X117242923Y-128021260D01*
X117251741Y-128023922D01*
X117251747Y-128023924D01*
X117532583Y-128106578D01*
X117591331Y-128117785D01*
X117649941Y-128129816D01*
X117659110Y-128130715D01*
X117659112Y-128130715D01*
X117950656Y-128157247D01*
X118010472Y-128156829D01*
X118070288Y-128157247D01*
X118079460Y-128156348D01*
X118370605Y-128125748D01*
X118429217Y-128113717D01*
X118487963Y-128102511D01*
X118496784Y-128099847D01*
X118776440Y-128013279D01*
X118831578Y-127990101D01*
X118887050Y-127967689D01*
X118895181Y-127963365D01*
X118895185Y-127963363D01*
X118895188Y-127963361D01*
X119152702Y-127824123D01*
X119202259Y-127790696D01*
X119252347Y-127757920D01*
X119259488Y-127752095D01*
X119485056Y-127565490D01*
X119527215Y-127523035D01*
X119569945Y-127481191D01*
X119575819Y-127474091D01*
X119760845Y-127247227D01*
X119793927Y-127197434D01*
X119827745Y-127148045D01*
X119832127Y-127139939D01*
X119969564Y-126881458D01*
X119992355Y-126826164D01*
X120015925Y-126771171D01*
X120018650Y-126762368D01*
X120103264Y-126482113D01*
X120114882Y-126423436D01*
X120127320Y-126364921D01*
X120128283Y-126355756D01*
X120156850Y-126064404D01*
X120156850Y-126064402D01*
X120160000Y-126032419D01*
X120160000Y-121117499D01*
X123292106Y-121117499D01*
X123508228Y-121484258D01*
X123968105Y-121724938D01*
X124466098Y-121871275D01*
X124983071Y-121917648D01*
X125499159Y-121862273D01*
X125994526Y-121707279D01*
X126411772Y-121484258D01*
X126627894Y-121117499D01*
X124960000Y-119449605D01*
X123292106Y-121117499D01*
X120160000Y-121117499D01*
X120160000Y-119293071D01*
X122312352Y-119293071D01*
X122367727Y-119809159D01*
X122522721Y-120304526D01*
X122745742Y-120721772D01*
X123112501Y-120937894D01*
X124780395Y-119270000D01*
X123112501Y-117602106D01*
X122745742Y-117818228D01*
X122505062Y-118278105D01*
X122358725Y-118776098D01*
X122312352Y-119293071D01*
X120160000Y-119293071D01*
X120160000Y-115825000D01*
X123011928Y-115825000D01*
X123024188Y-115949482D01*
X123060498Y-116069180D01*
X123119463Y-116179494D01*
X123198815Y-116276185D01*
X123295506Y-116355537D01*
X123405820Y-116414502D01*
X123525518Y-116450812D01*
X123650000Y-116463072D01*
X124214250Y-116460000D01*
X124373000Y-116301250D01*
X124373000Y-114977000D01*
X123173750Y-114977000D01*
X123015000Y-115135750D01*
X123011928Y-115825000D01*
X120160000Y-115825000D01*
X120160000Y-113875000D01*
X123011928Y-113875000D01*
X123015000Y-114564250D01*
X123173750Y-114723000D01*
X124373000Y-114723000D01*
X124373000Y-113398750D01*
X124214250Y-113240000D01*
X123650000Y-113236928D01*
X123525518Y-113249188D01*
X123405820Y-113285498D01*
X123295506Y-113344463D01*
X123198815Y-113423815D01*
X123119463Y-113520506D01*
X123060498Y-113630820D01*
X123024188Y-113750518D01*
X123011928Y-113875000D01*
X120160000Y-113875000D01*
X120160000Y-102967581D01*
X120156704Y-102934116D01*
X120156704Y-102914651D01*
X120155741Y-102905486D01*
X120123108Y-102614561D01*
X120110669Y-102556044D01*
X120099052Y-102497371D01*
X120096327Y-102488568D01*
X120007809Y-102209523D01*
X119984263Y-102154588D01*
X119961449Y-102099235D01*
X119957065Y-102091129D01*
X119816032Y-101834592D01*
X119782245Y-101785247D01*
X119749133Y-101735409D01*
X119743259Y-101728309D01*
X119555084Y-101504051D01*
X119512354Y-101462207D01*
X119470194Y-101419751D01*
X119463053Y-101413927D01*
X119234903Y-101230491D01*
X119184861Y-101197744D01*
X119135258Y-101164286D01*
X119127121Y-101159960D01*
X118867687Y-101024330D01*
X118812215Y-101001918D01*
X118757077Y-100978740D01*
X118748259Y-100976078D01*
X118748253Y-100976076D01*
X118467417Y-100893422D01*
X118408716Y-100882224D01*
X118350060Y-100870184D01*
X118340888Y-100869285D01*
X118049344Y-100842753D01*
X117989528Y-100843171D01*
X117929712Y-100842753D01*
X117920541Y-100843652D01*
X117629395Y-100874252D01*
X117570753Y-100886290D01*
X117512037Y-100897490D01*
X117503216Y-100900153D01*
X117223560Y-100986721D01*
X117168422Y-101009899D01*
X117112950Y-101032311D01*
X117104819Y-101036635D01*
X117104815Y-101036637D01*
X117104814Y-101036638D01*
X116847298Y-101175877D01*
X116797749Y-101209299D01*
X116747653Y-101242080D01*
X116740512Y-101247905D01*
X116514945Y-101434510D01*
X116472804Y-101476946D01*
X116430055Y-101518809D01*
X116424181Y-101525909D01*
X116239155Y-101752773D01*
X116206055Y-101802592D01*
X116172256Y-101851955D01*
X116167873Y-101860061D01*
X116030436Y-102118542D01*
X116007645Y-102173836D01*
X115984075Y-102228829D01*
X115981350Y-102237632D01*
X115896736Y-102517886D01*
X115885116Y-102576571D01*
X115872680Y-102635079D01*
X115871717Y-102644244D01*
X115843150Y-102935596D01*
X115843150Y-102935608D01*
X115840001Y-102967581D01*
X115840000Y-124994032D01*
X115717506Y-124763201D01*
X115705850Y-124745757D01*
X115252033Y-124427572D01*
X112979605Y-126700000D01*
X112620395Y-126700000D01*
X110347967Y-124427572D01*
X110160000Y-124559361D01*
X110160000Y-124247967D01*
X110527572Y-124247967D01*
X112800000Y-126520395D01*
X115072428Y-124247967D01*
X114754243Y-123794150D01*
X114149790Y-123468731D01*
X113493465Y-123267488D01*
X112810490Y-123198155D01*
X112127112Y-123263395D01*
X111469593Y-123460702D01*
X110863201Y-123782494D01*
X110845757Y-123794150D01*
X110527572Y-124247967D01*
X110160000Y-124247967D01*
X110160000Y-97752033D01*
X110527572Y-97752033D01*
X110845757Y-98205850D01*
X111450210Y-98531269D01*
X112106535Y-98732512D01*
X112789510Y-98801845D01*
X113472888Y-98736605D01*
X114130407Y-98539298D01*
X114736799Y-98217506D01*
X114754243Y-98205850D01*
X115072428Y-97752033D01*
X112800000Y-95479605D01*
X110527572Y-97752033D01*
X110160000Y-97752033D01*
X110160000Y-97440639D01*
X110347967Y-97572428D01*
X112620395Y-95300000D01*
X112979605Y-95300000D01*
X115252033Y-97572428D01*
X115705850Y-97254243D01*
X116031269Y-96649790D01*
X116232512Y-95993465D01*
X116269714Y-95627000D01*
X121955000Y-95627000D01*
X121955000Y-96027000D01*
X122007350Y-96304514D01*
X122112834Y-96566483D01*
X122267399Y-96802839D01*
X122465105Y-97004500D01*
X122698354Y-97163715D01*
X122958182Y-97274367D01*
X123040961Y-97291904D01*
X123263000Y-97169915D01*
X123263000Y-95627000D01*
X121955000Y-95627000D01*
X116269714Y-95627000D01*
X116301845Y-95310490D01*
X116269626Y-94973000D01*
X121955000Y-94973000D01*
X121955000Y-95373000D01*
X123263000Y-95373000D01*
X123263000Y-93830085D01*
X123040961Y-93708096D01*
X122958182Y-93725633D01*
X122698354Y-93836285D01*
X122465105Y-93995500D01*
X122267399Y-94197161D01*
X122112834Y-94433517D01*
X122007350Y-94695486D01*
X121955000Y-94973000D01*
X116269626Y-94973000D01*
X116236605Y-94627112D01*
X116039298Y-93969593D01*
X115717506Y-93363201D01*
X115705850Y-93345757D01*
X115252033Y-93027572D01*
X112979605Y-95300000D01*
X112620395Y-95300000D01*
X112606253Y-95285858D01*
X112785858Y-95106253D01*
X112800000Y-95120395D01*
X115072428Y-92847967D01*
X114940639Y-92660000D01*
X131565198Y-92660000D01*
X130499003Y-93726196D01*
G37*
%TD.AperFunction*%
D22*
X142511068Y-104321100D02*
X142690392Y-104539607D01*
X142908899Y-104718932D01*
X143158192Y-104852182D01*
X143428691Y-104934236D01*
X143710000Y-104961943D01*
X143991308Y-104934236D01*
X144240000Y-104858797D01*
X144240001Y-116589636D01*
X144154494Y-116519463D01*
X144044180Y-116460498D01*
X143924482Y-116424188D01*
X143800000Y-116411928D01*
X143285750Y-116415000D01*
X143127000Y-116573750D01*
X143127000Y-117723000D01*
X143147000Y-117723000D01*
X143147000Y-117977000D01*
X143127000Y-117977000D01*
X143127000Y-117997000D01*
X142873000Y-117997000D01*
X142873000Y-117977000D01*
X142853000Y-117977000D01*
X142853000Y-117723000D01*
X142873000Y-117723000D01*
X142873000Y-116573750D01*
X142714250Y-116415000D01*
X142375298Y-116412975D01*
X142571034Y-116353599D01*
X142829014Y-116215706D01*
X143055134Y-116030134D01*
X143240706Y-115804014D01*
X143378599Y-115546033D01*
X143463513Y-115266110D01*
X143485000Y-115047949D01*
X143485000Y-114652050D01*
X143463513Y-114433889D01*
X143378599Y-114153966D01*
X143240706Y-113895986D01*
X143055134Y-113669866D01*
X142829013Y-113484294D01*
X142571033Y-113346401D01*
X142291110Y-113261487D01*
X142000000Y-113232815D01*
X141708889Y-113261487D01*
X141428966Y-113346401D01*
X141170986Y-113484294D01*
X140944866Y-113669866D01*
X140759294Y-113895987D01*
X140750000Y-113913374D01*
X140740706Y-113895986D01*
X140555134Y-113669866D01*
X140329013Y-113484294D01*
X140071033Y-113346401D01*
X139791110Y-113261487D01*
X139500000Y-113232815D01*
X139208889Y-113261487D01*
X138928966Y-113346401D01*
X138670986Y-113484294D01*
X138444866Y-113669866D01*
X138259294Y-113895987D01*
X138250000Y-113913374D01*
X138240706Y-113895986D01*
X138055134Y-113669866D01*
X137829013Y-113484294D01*
X137571033Y-113346401D01*
X137291110Y-113261487D01*
X137000000Y-113232815D01*
X136708889Y-113261487D01*
X136476652Y-113331935D01*
X136459964Y-113300714D01*
X136364991Y-113184989D01*
X136335993Y-113161191D01*
X134460000Y-111285199D01*
X134460000Y-107514801D01*
X135311004Y-106663798D01*
X135340001Y-106640001D01*
X135366332Y-106607917D01*
X135434974Y-106524277D01*
X135505546Y-106392247D01*
X135521394Y-106340001D01*
X135549003Y-106248986D01*
X135560000Y-106137333D01*
X135560000Y-106137323D01*
X135563676Y-106100000D01*
X135560000Y-106062677D01*
X135560000Y-104858797D01*
X135808691Y-104934236D01*
X136090000Y-104961943D01*
X136371308Y-104934236D01*
X136641807Y-104852182D01*
X136891100Y-104718932D01*
X137109607Y-104539608D01*
X137288932Y-104321101D01*
X137360000Y-104188142D01*
X137431068Y-104321100D01*
X137610392Y-104539607D01*
X137828899Y-104718932D01*
X138078192Y-104852182D01*
X138348691Y-104934236D01*
X138630000Y-104961943D01*
X138911308Y-104934236D01*
X139181807Y-104852182D01*
X139431100Y-104718932D01*
X139649607Y-104539608D01*
X139828932Y-104321101D01*
X139900000Y-104188142D01*
X139971068Y-104321100D01*
X140150392Y-104539607D01*
X140368899Y-104718932D01*
X140618192Y-104852182D01*
X140888691Y-104934236D01*
X141170000Y-104961943D01*
X141451308Y-104934236D01*
X141721807Y-104852182D01*
X141971100Y-104718932D01*
X142189607Y-104539608D01*
X142368932Y-104321101D01*
X142440000Y-104188142D01*
X142511068Y-104321100D01*
%TA.AperFunction,Conductor*%
D23*
G36*
X142511068Y-104321100D02*
G01*
X142690392Y-104539607D01*
X142908899Y-104718932D01*
X143158192Y-104852182D01*
X143428691Y-104934236D01*
X143710000Y-104961943D01*
X143991308Y-104934236D01*
X144240000Y-104858797D01*
X144240001Y-116589636D01*
X144154494Y-116519463D01*
X144044180Y-116460498D01*
X143924482Y-116424188D01*
X143800000Y-116411928D01*
X143285750Y-116415000D01*
X143127000Y-116573750D01*
X143127000Y-117723000D01*
X143147000Y-117723000D01*
X143147000Y-117977000D01*
X143127000Y-117977000D01*
X143127000Y-117997000D01*
X142873000Y-117997000D01*
X142873000Y-117977000D01*
X142853000Y-117977000D01*
X142853000Y-117723000D01*
X142873000Y-117723000D01*
X142873000Y-116573750D01*
X142714250Y-116415000D01*
X142375298Y-116412975D01*
X142571034Y-116353599D01*
X142829014Y-116215706D01*
X143055134Y-116030134D01*
X143240706Y-115804014D01*
X143378599Y-115546033D01*
X143463513Y-115266110D01*
X143485000Y-115047949D01*
X143485000Y-114652050D01*
X143463513Y-114433889D01*
X143378599Y-114153966D01*
X143240706Y-113895986D01*
X143055134Y-113669866D01*
X142829013Y-113484294D01*
X142571033Y-113346401D01*
X142291110Y-113261487D01*
X142000000Y-113232815D01*
X141708889Y-113261487D01*
X141428966Y-113346401D01*
X141170986Y-113484294D01*
X140944866Y-113669866D01*
X140759294Y-113895987D01*
X140750000Y-113913374D01*
X140740706Y-113895986D01*
X140555134Y-113669866D01*
X140329013Y-113484294D01*
X140071033Y-113346401D01*
X139791110Y-113261487D01*
X139500000Y-113232815D01*
X139208889Y-113261487D01*
X138928966Y-113346401D01*
X138670986Y-113484294D01*
X138444866Y-113669866D01*
X138259294Y-113895987D01*
X138250000Y-113913374D01*
X138240706Y-113895986D01*
X138055134Y-113669866D01*
X137829013Y-113484294D01*
X137571033Y-113346401D01*
X137291110Y-113261487D01*
X137000000Y-113232815D01*
X136708889Y-113261487D01*
X136476652Y-113331935D01*
X136459964Y-113300714D01*
X136364991Y-113184989D01*
X136335993Y-113161191D01*
X134460000Y-111285199D01*
X134460000Y-107514801D01*
X135311004Y-106663798D01*
X135340001Y-106640001D01*
X135366332Y-106607917D01*
X135434974Y-106524277D01*
X135505546Y-106392247D01*
X135521394Y-106340001D01*
X135549003Y-106248986D01*
X135560000Y-106137333D01*
X135560000Y-106137323D01*
X135563676Y-106100000D01*
X135560000Y-106062677D01*
X135560000Y-104858797D01*
X135808691Y-104934236D01*
X136090000Y-104961943D01*
X136371308Y-104934236D01*
X136641807Y-104852182D01*
X136891100Y-104718932D01*
X137109607Y-104539608D01*
X137288932Y-104321101D01*
X137360000Y-104188142D01*
X137431068Y-104321100D01*
X137610392Y-104539607D01*
X137828899Y-104718932D01*
X138078192Y-104852182D01*
X138348691Y-104934236D01*
X138630000Y-104961943D01*
X138911308Y-104934236D01*
X139181807Y-104852182D01*
X139431100Y-104718932D01*
X139649607Y-104539608D01*
X139828932Y-104321101D01*
X139900000Y-104188142D01*
X139971068Y-104321100D01*
X140150392Y-104539607D01*
X140368899Y-104718932D01*
X140618192Y-104852182D01*
X140888691Y-104934236D01*
X141170000Y-104961943D01*
X141451308Y-104934236D01*
X141721807Y-104852182D01*
X141971100Y-104718932D01*
X142189607Y-104539608D01*
X142368932Y-104321101D01*
X142440000Y-104188142D01*
X142511068Y-104321100D01*
G37*
%TD.AperFunction*%
D22*
X147540000Y-106863616D02*
X147285750Y-106865000D01*
X147127000Y-107023750D01*
X147127000Y-108223000D01*
X147147000Y-108223000D01*
X147147000Y-108477000D01*
X147127000Y-108477000D01*
X147127000Y-109676250D01*
X147285750Y-109835000D01*
X147540000Y-109836384D01*
X147540000Y-115721609D01*
X145760000Y-117501609D01*
X145760000Y-109701398D01*
X145795506Y-109730537D01*
X145905820Y-109789502D01*
X146025518Y-109825812D01*
X146150000Y-109838072D01*
X146714250Y-109835000D01*
X146873000Y-109676250D01*
X146873000Y-108477000D01*
X146853000Y-108477000D01*
X146853000Y-108223000D01*
X146873000Y-108223000D01*
X146873000Y-107023750D01*
X146714250Y-106865000D01*
X146150000Y-106861928D01*
X146025518Y-106874188D01*
X145905820Y-106910498D01*
X145795506Y-106969463D01*
X145760000Y-106998602D01*
X145760000Y-104870931D01*
X145968691Y-104934236D01*
X146250000Y-104961943D01*
X146531308Y-104934236D01*
X146801807Y-104852182D01*
X147051100Y-104718932D01*
X147269607Y-104539608D01*
X147448932Y-104321101D01*
X147540001Y-104150724D01*
X147540000Y-106863616D01*
%TA.AperFunction,Conductor*%
D23*
G36*
X147540000Y-106863616D02*
G01*
X147285750Y-106865000D01*
X147127000Y-107023750D01*
X147127000Y-108223000D01*
X147147000Y-108223000D01*
X147147000Y-108477000D01*
X147127000Y-108477000D01*
X147127000Y-109676250D01*
X147285750Y-109835000D01*
X147540000Y-109836384D01*
X147540000Y-115721609D01*
X145760000Y-117501609D01*
X145760000Y-109701398D01*
X145795506Y-109730537D01*
X145905820Y-109789502D01*
X146025518Y-109825812D01*
X146150000Y-109838072D01*
X146714250Y-109835000D01*
X146873000Y-109676250D01*
X146873000Y-108477000D01*
X146853000Y-108477000D01*
X146853000Y-108223000D01*
X146873000Y-108223000D01*
X146873000Y-107023750D01*
X146714250Y-106865000D01*
X146150000Y-106861928D01*
X146025518Y-106874188D01*
X145905820Y-106910498D01*
X145795506Y-106969463D01*
X145760000Y-106998602D01*
X145760000Y-104870931D01*
X145968691Y-104934236D01*
X146250000Y-104961943D01*
X146531308Y-104934236D01*
X146801807Y-104852182D01*
X147051100Y-104718932D01*
X147269607Y-104539608D01*
X147448932Y-104321101D01*
X147540001Y-104150724D01*
X147540000Y-106863616D01*
G37*
%TD.AperFunction*%
D22*
X131840001Y-107514803D02*
X131840000Y-111285198D01*
X130313988Y-112811211D01*
X130284990Y-112835009D01*
X130261192Y-112864007D01*
X130261191Y-112864008D01*
X130190016Y-112950734D01*
X130119444Y-113082764D01*
X130100819Y-113144165D01*
X130075988Y-113226024D01*
X130069940Y-113287426D01*
X130064332Y-113344368D01*
X129791110Y-113261487D01*
X129500000Y-113232815D01*
X129476037Y-113235175D01*
X130161015Y-112550198D01*
X130190012Y-112526401D01*
X130284985Y-112410676D01*
X130355557Y-112278647D01*
X130399014Y-112135386D01*
X130410011Y-112023733D01*
X130410011Y-112023724D01*
X130413687Y-111986401D01*
X130410011Y-111949078D01*
X130410011Y-106387334D01*
X130413687Y-106350011D01*
X130410011Y-106312688D01*
X130410011Y-106312678D01*
X130399014Y-106201025D01*
X130355557Y-106057764D01*
X130324087Y-105998888D01*
X131840001Y-107514803D01*
%TA.AperFunction,Conductor*%
D23*
G36*
X131840001Y-107514803D02*
G01*
X131840000Y-111285198D01*
X130313988Y-112811211D01*
X130284990Y-112835009D01*
X130261192Y-112864007D01*
X130261191Y-112864008D01*
X130190016Y-112950734D01*
X130119444Y-113082764D01*
X130100819Y-113144165D01*
X130075988Y-113226024D01*
X130069940Y-113287426D01*
X130064332Y-113344368D01*
X129791110Y-113261487D01*
X129500000Y-113232815D01*
X129476037Y-113235175D01*
X130161015Y-112550198D01*
X130190012Y-112526401D01*
X130284985Y-112410676D01*
X130355557Y-112278647D01*
X130399014Y-112135386D01*
X130410011Y-112023733D01*
X130410011Y-112023724D01*
X130413687Y-111986401D01*
X130410011Y-111949078D01*
X130410011Y-106387334D01*
X130413687Y-106350011D01*
X130410011Y-106312688D01*
X130410011Y-106312678D01*
X130399014Y-106201025D01*
X130355557Y-106057764D01*
X130324087Y-105998888D01*
X131840001Y-107514803D01*
G37*
%TD.AperFunction*%
D22*
X147540001Y-102089276D02*
X147448932Y-101918899D01*
X147269608Y-101700392D01*
X147051101Y-101521068D01*
X146801808Y-101387818D01*
X146531309Y-101305764D01*
X146250000Y-101278057D01*
X145968692Y-101305764D01*
X145760000Y-101369069D01*
X145760000Y-97338072D01*
X147050000Y-97338072D01*
X147174482Y-97325812D01*
X147294180Y-97289502D01*
X147404494Y-97230537D01*
X147501185Y-97151185D01*
X147540001Y-97103888D01*
X147540001Y-102089276D01*
%TA.AperFunction,Conductor*%
D23*
G36*
X147540001Y-102089276D02*
G01*
X147448932Y-101918899D01*
X147269608Y-101700392D01*
X147051101Y-101521068D01*
X146801808Y-101387818D01*
X146531309Y-101305764D01*
X146250000Y-101278057D01*
X145968692Y-101305764D01*
X145760000Y-101369069D01*
X145760000Y-97338072D01*
X147050000Y-97338072D01*
X147174482Y-97325812D01*
X147294180Y-97289502D01*
X147404494Y-97230537D01*
X147501185Y-97151185D01*
X147540001Y-97103888D01*
X147540001Y-102089276D01*
G37*
%TD.AperFunction*%
D22*
X144240000Y-101381203D02*
X143991309Y-101305764D01*
X143710000Y-101278057D01*
X143428692Y-101305764D01*
X143158193Y-101387818D01*
X142908900Y-101521068D01*
X142690393Y-101700392D01*
X142511068Y-101918899D01*
X142440000Y-102051858D01*
X142368932Y-101918899D01*
X142189608Y-101700392D01*
X141971101Y-101521068D01*
X141721808Y-101387818D01*
X141451309Y-101305764D01*
X141170000Y-101278057D01*
X140888692Y-101305764D01*
X140618193Y-101387818D01*
X140368900Y-101521068D01*
X140150393Y-101700392D01*
X139971068Y-101918899D01*
X139900000Y-102051858D01*
X139828932Y-101918899D01*
X139649608Y-101700392D01*
X139431101Y-101521068D01*
X139181808Y-101387818D01*
X138911309Y-101305764D01*
X138630000Y-101278057D01*
X138348692Y-101305764D01*
X138078193Y-101387818D01*
X137828900Y-101521068D01*
X137610393Y-101700392D01*
X137431068Y-101918899D01*
X137360000Y-102051858D01*
X137288932Y-101918899D01*
X137109608Y-101700392D01*
X136891101Y-101521068D01*
X136641808Y-101387818D01*
X136371309Y-101305764D01*
X136090000Y-101278057D01*
X135808692Y-101305764D01*
X135560000Y-101381203D01*
X135560000Y-100914801D01*
X135714802Y-100760000D01*
X140862678Y-100760000D01*
X140900000Y-100763676D01*
X140937322Y-100760000D01*
X140937333Y-100760000D01*
X141048986Y-100749003D01*
X141192247Y-100705546D01*
X141324276Y-100634974D01*
X141440001Y-100540001D01*
X141463804Y-100510997D01*
X144221004Y-97753798D01*
X144240000Y-97738208D01*
X144240000Y-101381203D01*
%TA.AperFunction,Conductor*%
D23*
G36*
X144240000Y-101381203D02*
G01*
X143991309Y-101305764D01*
X143710000Y-101278057D01*
X143428692Y-101305764D01*
X143158193Y-101387818D01*
X142908900Y-101521068D01*
X142690393Y-101700392D01*
X142511068Y-101918899D01*
X142440000Y-102051858D01*
X142368932Y-101918899D01*
X142189608Y-101700392D01*
X141971101Y-101521068D01*
X141721808Y-101387818D01*
X141451309Y-101305764D01*
X141170000Y-101278057D01*
X140888692Y-101305764D01*
X140618193Y-101387818D01*
X140368900Y-101521068D01*
X140150393Y-101700392D01*
X139971068Y-101918899D01*
X139900000Y-102051858D01*
X139828932Y-101918899D01*
X139649608Y-101700392D01*
X139431101Y-101521068D01*
X139181808Y-101387818D01*
X138911309Y-101305764D01*
X138630000Y-101278057D01*
X138348692Y-101305764D01*
X138078193Y-101387818D01*
X137828900Y-101521068D01*
X137610393Y-101700392D01*
X137431068Y-101918899D01*
X137360000Y-102051858D01*
X137288932Y-101918899D01*
X137109608Y-101700392D01*
X136891101Y-101521068D01*
X136641808Y-101387818D01*
X136371309Y-101305764D01*
X136090000Y-101278057D01*
X135808692Y-101305764D01*
X135560000Y-101381203D01*
X135560000Y-100914801D01*
X135714802Y-100760000D01*
X140862678Y-100760000D01*
X140900000Y-100763676D01*
X140937322Y-100760000D01*
X140937333Y-100760000D01*
X141048986Y-100749003D01*
X141192247Y-100705546D01*
X141324276Y-100634974D01*
X141440001Y-100540001D01*
X141463804Y-100510997D01*
X144221004Y-97753798D01*
X144240000Y-97738208D01*
X144240000Y-101381203D01*
G37*
%TD.AperFunction*%
D22*
X126584990Y-101442970D02*
X126481808Y-101387818D01*
X126211309Y-101305764D01*
X125930000Y-101278057D01*
X125648692Y-101305764D01*
X125460000Y-101363002D01*
X125460000Y-99214801D01*
X126441004Y-98233798D01*
X126470001Y-98210001D01*
X126564974Y-98094276D01*
X126584991Y-98056828D01*
X126584990Y-101442970D01*
%TA.AperFunction,Conductor*%
D23*
G36*
X126584990Y-101442970D02*
G01*
X126481808Y-101387818D01*
X126211309Y-101305764D01*
X125930000Y-101278057D01*
X125648692Y-101305764D01*
X125460000Y-101363002D01*
X125460000Y-99214801D01*
X126441004Y-98233798D01*
X126470001Y-98210001D01*
X126564974Y-98094276D01*
X126584991Y-98056828D01*
X126584990Y-101442970D01*
G37*
%TD.AperFunction*%
D22*
X132351068Y-96701100D02*
X132530392Y-96919607D01*
X132748899Y-97098932D01*
X132998192Y-97232182D01*
X133023965Y-97240000D01*
X132437323Y-97240000D01*
X132400000Y-97236324D01*
X132362677Y-97240000D01*
X132362667Y-97240000D01*
X132251014Y-97250997D01*
X132107753Y-97294454D01*
X131975723Y-97365026D01*
X131892083Y-97433668D01*
X131859999Y-97459999D01*
X131836201Y-97488997D01*
X129238998Y-100086201D01*
X129210000Y-100109999D01*
X129186202Y-100138997D01*
X129186201Y-100138998D01*
X129115026Y-100225724D01*
X129044454Y-100357754D01*
X129000998Y-100501015D01*
X128986324Y-100650000D01*
X128990001Y-100687332D01*
X128990001Y-101378170D01*
X128751309Y-101305764D01*
X128470000Y-101278057D01*
X128188692Y-101305764D01*
X128104990Y-101331154D01*
X128104990Y-97288846D01*
X128188691Y-97314236D01*
X128470000Y-97341943D01*
X128751308Y-97314236D01*
X129021807Y-97232182D01*
X129271100Y-97098932D01*
X129489607Y-96919608D01*
X129668932Y-96701101D01*
X129740000Y-96568142D01*
X129811068Y-96701100D01*
X129990392Y-96919607D01*
X130208899Y-97098932D01*
X130458192Y-97232182D01*
X130728691Y-97314236D01*
X131010000Y-97341943D01*
X131291308Y-97314236D01*
X131561807Y-97232182D01*
X131811100Y-97098932D01*
X132029607Y-96919608D01*
X132208932Y-96701101D01*
X132280000Y-96568142D01*
X132351068Y-96701100D01*
%TA.AperFunction,Conductor*%
D23*
G36*
X132351068Y-96701100D02*
G01*
X132530392Y-96919607D01*
X132748899Y-97098932D01*
X132998192Y-97232182D01*
X133023965Y-97240000D01*
X132437323Y-97240000D01*
X132400000Y-97236324D01*
X132362677Y-97240000D01*
X132362667Y-97240000D01*
X132251014Y-97250997D01*
X132107753Y-97294454D01*
X131975723Y-97365026D01*
X131892083Y-97433668D01*
X131859999Y-97459999D01*
X131836201Y-97488997D01*
X129238998Y-100086201D01*
X129210000Y-100109999D01*
X129186202Y-100138997D01*
X129186201Y-100138998D01*
X129115026Y-100225724D01*
X129044454Y-100357754D01*
X129000998Y-100501015D01*
X128986324Y-100650000D01*
X128990001Y-100687332D01*
X128990001Y-101378170D01*
X128751309Y-101305764D01*
X128470000Y-101278057D01*
X128188692Y-101305764D01*
X128104990Y-101331154D01*
X128104990Y-97288846D01*
X128188691Y-97314236D01*
X128470000Y-97341943D01*
X128751308Y-97314236D01*
X129021807Y-97232182D01*
X129271100Y-97098932D01*
X129489607Y-96919608D01*
X129668932Y-96701101D01*
X129740000Y-96568142D01*
X129811068Y-96701100D01*
X129990392Y-96919607D01*
X130208899Y-97098932D01*
X130458192Y-97232182D01*
X130728691Y-97314236D01*
X131010000Y-97341943D01*
X131291308Y-97314236D01*
X131561807Y-97232182D01*
X131811100Y-97098932D01*
X132029607Y-96919608D01*
X132208932Y-96701101D01*
X132280000Y-96568142D01*
X132351068Y-96701100D01*
G37*
%TD.AperFunction*%
%TD*%
M02*
