%TF.GenerationSoftware,KiCad,Pcbnew,5.1.8+dfsg1-1+b1*%
%TF.CreationDate,2021-07-20T03:33:59+03:00*%
%TF.ProjectId,gbs-cgaega,6762732d-6367-4616-9567-612e6b696361,rev?*%
%TF.SameCoordinates,Original*%
%TF.FileFunction,Soldermask,Top*%
%TF.FilePolarity,Negative*%
%FSLAX46Y46*%
G04 Gerber Fmt 4.6, Leading zero omitted, Abs format (unit mm)*
G04 Created by KiCad (PCBNEW 5.1.8+dfsg1-1+b1) date 2021-07-20 03:33:59*
%MOMM*%
%LPD*%
G01*
G04 APERTURE LIST*
%ADD10C,5.700000*%
%ADD11O,1.600000X2.400000*%
%ADD12R,1.600000X2.400000*%
%ADD13R,1.600000X1.600000*%
%ADD14C,1.600000*%
%ADD15C,4.000000*%
%ADD16O,2.000000X1.700000*%
%ADD17O,1.700000X1.950000*%
%ADD18R,1.700000X1.700000*%
%ADD19O,1.700000X1.700000*%
G04 APERTURE END LIST*
D10*
%TO.C,H3*%
X112800000Y-95300000D03*
%TD*%
%TO.C,H1*%
X112800000Y-126700000D03*
%TD*%
D11*
%TO.C,U1*%
X146250000Y-103120000D03*
X123390000Y-95500000D03*
X143710000Y-103120000D03*
X125930000Y-95500000D03*
X141170000Y-103120000D03*
X128470000Y-95500000D03*
X138630000Y-103120000D03*
X131010000Y-95500000D03*
X136090000Y-103120000D03*
X133550000Y-95500000D03*
X133550000Y-103120000D03*
X136090000Y-95500000D03*
X131010000Y-103120000D03*
X138630000Y-95500000D03*
X128470000Y-103120000D03*
X141170000Y-95500000D03*
X125930000Y-103120000D03*
X143710000Y-95500000D03*
X123390000Y-103120000D03*
D12*
X146250000Y-95500000D03*
%TD*%
%TO.C,C1*%
G36*
G01*
X150350001Y-100200000D02*
X149449999Y-100200000D01*
G75*
G02*
X149200000Y-99950001I0J249999D01*
G01*
X149200000Y-99299999D01*
G75*
G02*
X149449999Y-99050000I249999J0D01*
G01*
X150350001Y-99050000D01*
G75*
G02*
X150600000Y-99299999I0J-249999D01*
G01*
X150600000Y-99950001D01*
G75*
G02*
X150350001Y-100200000I-249999J0D01*
G01*
G37*
G36*
G01*
X150350001Y-98150000D02*
X149449999Y-98150000D01*
G75*
G02*
X149200000Y-97900001I0J249999D01*
G01*
X149200000Y-97249999D01*
G75*
G02*
X149449999Y-97000000I249999J0D01*
G01*
X150350001Y-97000000D01*
G75*
G02*
X150600000Y-97249999I0J-249999D01*
G01*
X150600000Y-97900001D01*
G75*
G02*
X150350001Y-98150000I-249999J0D01*
G01*
G37*
%TD*%
D13*
%TO.C,J1*%
X143000000Y-117850000D03*
D14*
X140230000Y-117850000D03*
X137460000Y-117850000D03*
X134690000Y-117850000D03*
X131920000Y-117850000D03*
X141615000Y-120690000D03*
X138845000Y-120690000D03*
X136075000Y-120690000D03*
X133305000Y-120690000D03*
D15*
X124960000Y-119270000D03*
X149960000Y-119270000D03*
%TD*%
%TO.C,J2*%
G36*
G01*
X155250000Y-100700000D02*
X153750000Y-100700000D01*
G75*
G02*
X153500000Y-100450000I0J250000D01*
G01*
X153500000Y-99250000D01*
G75*
G02*
X153750000Y-99000000I250000J0D01*
G01*
X155250000Y-99000000D01*
G75*
G02*
X155500000Y-99250000I0J-250000D01*
G01*
X155500000Y-100450000D01*
G75*
G02*
X155250000Y-100700000I-250000J0D01*
G01*
G37*
D16*
X154500000Y-97350000D03*
%TD*%
%TO.C,J3*%
G36*
G01*
X123650000Y-115575000D02*
X123650000Y-114125000D01*
G75*
G02*
X123900000Y-113875000I250000J0D01*
G01*
X125100000Y-113875000D01*
G75*
G02*
X125350000Y-114125000I0J-250000D01*
G01*
X125350000Y-115575000D01*
G75*
G02*
X125100000Y-115825000I-250000J0D01*
G01*
X123900000Y-115825000D01*
G75*
G02*
X123650000Y-115575000I0J250000D01*
G01*
G37*
D17*
X127000000Y-114850000D03*
X129500000Y-114850000D03*
X132000000Y-114850000D03*
X134500000Y-114850000D03*
X137000000Y-114850000D03*
X139500000Y-114850000D03*
X142000000Y-114850000D03*
%TD*%
%TO.C,R1*%
G36*
G01*
X150350001Y-105500000D02*
X149449999Y-105500000D01*
G75*
G02*
X149200000Y-105250001I0J249999D01*
G01*
X149200000Y-104599999D01*
G75*
G02*
X149449999Y-104350000I249999J0D01*
G01*
X150350001Y-104350000D01*
G75*
G02*
X150600000Y-104599999I0J-249999D01*
G01*
X150600000Y-105250001D01*
G75*
G02*
X150350001Y-105500000I-249999J0D01*
G01*
G37*
G36*
G01*
X150350001Y-103450000D02*
X149449999Y-103450000D01*
G75*
G02*
X149200000Y-103200001I0J249999D01*
G01*
X149200000Y-102549999D01*
G75*
G02*
X149449999Y-102300000I249999J0D01*
G01*
X150350001Y-102300000D01*
G75*
G02*
X150600000Y-102549999I0J-249999D01*
G01*
X150600000Y-103200001D01*
G75*
G02*
X150350001Y-103450000I-249999J0D01*
G01*
G37*
%TD*%
%TO.C,R2*%
G36*
G01*
X144150001Y-109900000D02*
X143249999Y-109900000D01*
G75*
G02*
X143000000Y-109650001I0J249999D01*
G01*
X143000000Y-108999999D01*
G75*
G02*
X143249999Y-108750000I249999J0D01*
G01*
X144150001Y-108750000D01*
G75*
G02*
X144400000Y-108999999I0J-249999D01*
G01*
X144400000Y-109650001D01*
G75*
G02*
X144150001Y-109900000I-249999J0D01*
G01*
G37*
G36*
G01*
X144150001Y-107850000D02*
X143249999Y-107850000D01*
G75*
G02*
X143000000Y-107600001I0J249999D01*
G01*
X143000000Y-106949999D01*
G75*
G02*
X143249999Y-106700000I249999J0D01*
G01*
X144150001Y-106700000D01*
G75*
G02*
X144400000Y-106949999I0J-249999D01*
G01*
X144400000Y-107600001D01*
G75*
G02*
X144150001Y-107850000I-249999J0D01*
G01*
G37*
%TD*%
%TO.C,R3*%
G36*
G01*
X141600001Y-107850000D02*
X140699999Y-107850000D01*
G75*
G02*
X140450000Y-107600001I0J249999D01*
G01*
X140450000Y-106949999D01*
G75*
G02*
X140699999Y-106700000I249999J0D01*
G01*
X141600001Y-106700000D01*
G75*
G02*
X141850000Y-106949999I0J-249999D01*
G01*
X141850000Y-107600001D01*
G75*
G02*
X141600001Y-107850000I-249999J0D01*
G01*
G37*
G36*
G01*
X141600001Y-109900000D02*
X140699999Y-109900000D01*
G75*
G02*
X140450000Y-109650001I0J249999D01*
G01*
X140450000Y-108999999D01*
G75*
G02*
X140699999Y-108750000I249999J0D01*
G01*
X141600001Y-108750000D01*
G75*
G02*
X141850000Y-108999999I0J-249999D01*
G01*
X141850000Y-109650001D01*
G75*
G02*
X141600001Y-109900000I-249999J0D01*
G01*
G37*
%TD*%
%TO.C,R4*%
G36*
G01*
X139050001Y-109900000D02*
X138149999Y-109900000D01*
G75*
G02*
X137900000Y-109650001I0J249999D01*
G01*
X137900000Y-108999999D01*
G75*
G02*
X138149999Y-108750000I249999J0D01*
G01*
X139050001Y-108750000D01*
G75*
G02*
X139300000Y-108999999I0J-249999D01*
G01*
X139300000Y-109650001D01*
G75*
G02*
X139050001Y-109900000I-249999J0D01*
G01*
G37*
G36*
G01*
X139050001Y-107850000D02*
X138149999Y-107850000D01*
G75*
G02*
X137900000Y-107600001I0J249999D01*
G01*
X137900000Y-106949999D01*
G75*
G02*
X138149999Y-106700000I249999J0D01*
G01*
X139050001Y-106700000D01*
G75*
G02*
X139300000Y-106949999I0J-249999D01*
G01*
X139300000Y-107600001D01*
G75*
G02*
X139050001Y-107850000I-249999J0D01*
G01*
G37*
%TD*%
%TO.C,R5*%
G36*
G01*
X136550001Y-107850000D02*
X135649999Y-107850000D01*
G75*
G02*
X135400000Y-107600001I0J249999D01*
G01*
X135400000Y-106949999D01*
G75*
G02*
X135649999Y-106700000I249999J0D01*
G01*
X136550001Y-106700000D01*
G75*
G02*
X136800000Y-106949999I0J-249999D01*
G01*
X136800000Y-107600001D01*
G75*
G02*
X136550001Y-107850000I-249999J0D01*
G01*
G37*
G36*
G01*
X136550001Y-109900000D02*
X135649999Y-109900000D01*
G75*
G02*
X135400000Y-109650001I0J249999D01*
G01*
X135400000Y-108999999D01*
G75*
G02*
X135649999Y-108750000I249999J0D01*
G01*
X136550001Y-108750000D01*
G75*
G02*
X136800000Y-108999999I0J-249999D01*
G01*
X136800000Y-109650001D01*
G75*
G02*
X136550001Y-109900000I-249999J0D01*
G01*
G37*
%TD*%
%TO.C,R6*%
G36*
G01*
X134000001Y-109900000D02*
X133099999Y-109900000D01*
G75*
G02*
X132850000Y-109650001I0J249999D01*
G01*
X132850000Y-108999999D01*
G75*
G02*
X133099999Y-108750000I249999J0D01*
G01*
X134000001Y-108750000D01*
G75*
G02*
X134250000Y-108999999I0J-249999D01*
G01*
X134250000Y-109650001D01*
G75*
G02*
X134000001Y-109900000I-249999J0D01*
G01*
G37*
G36*
G01*
X134000001Y-107850000D02*
X133099999Y-107850000D01*
G75*
G02*
X132850000Y-107600001I0J249999D01*
G01*
X132850000Y-106949999D01*
G75*
G02*
X133099999Y-106700000I249999J0D01*
G01*
X134000001Y-106700000D01*
G75*
G02*
X134250000Y-106949999I0J-249999D01*
G01*
X134250000Y-107600001D01*
G75*
G02*
X134000001Y-107850000I-249999J0D01*
G01*
G37*
%TD*%
%TO.C,R7*%
G36*
G01*
X131450001Y-107850000D02*
X130549999Y-107850000D01*
G75*
G02*
X130300000Y-107600001I0J249999D01*
G01*
X130300000Y-106949999D01*
G75*
G02*
X130549999Y-106700000I249999J0D01*
G01*
X131450001Y-106700000D01*
G75*
G02*
X131700000Y-106949999I0J-249999D01*
G01*
X131700000Y-107600001D01*
G75*
G02*
X131450001Y-107850000I-249999J0D01*
G01*
G37*
G36*
G01*
X131450001Y-109900000D02*
X130549999Y-109900000D01*
G75*
G02*
X130300000Y-109650001I0J249999D01*
G01*
X130300000Y-108999999D01*
G75*
G02*
X130549999Y-108750000I249999J0D01*
G01*
X131450001Y-108750000D01*
G75*
G02*
X131700000Y-108999999I0J-249999D01*
G01*
X131700000Y-109650001D01*
G75*
G02*
X131450001Y-109900000I-249999J0D01*
G01*
G37*
%TD*%
D18*
%TO.C,SW1*%
X147000000Y-108350000D03*
D19*
X149540000Y-108350000D03*
X152080000Y-108350000D03*
%TD*%
%TO.C,SW2*%
X127830000Y-108350000D03*
X125290000Y-108350000D03*
D18*
X122750000Y-108350000D03*
%TD*%
M02*
