M48
; DRILL file {KiCad 5.1.8+dfsg1-1+b1} date Tue Jul 20 03:34:01 2021
; FORMAT={-:-/ absolute / metric / decimal}
; #@! TF.CreationDate,2021-07-20T03:34:01+03:00
; #@! TF.GenerationSoftware,Kicad,Pcbnew,5.1.8+dfsg1-1+b1
; #@! TF.FileFunction,Plated,1,2,PTH
FMAT,2
METRIC
T1C0.400
T2C0.800
T3C0.950
T4C1.000
T5C3.200
%
G90
G05
T1
X121.1Y-105.6
X125.9Y-99.1
X127.8Y-110.5
X129.7Y-99.1
X130.6Y-112.2
X137.0Y-111.4
X140.0Y-110.9
X142.5Y-110.9
X143.6Y-99.1
X146.3Y-98.2
T2
X123.39Y-95.5
X123.39Y-103.12
X125.93Y-95.5
X125.93Y-103.12
X128.47Y-95.5
X128.47Y-103.12
X131.01Y-95.5
X131.01Y-103.12
X133.55Y-95.5
X133.55Y-103.12
X136.09Y-95.5
X136.09Y-103.12
X138.63Y-95.5
X138.63Y-103.12
X141.17Y-95.5
X141.17Y-103.12
X143.71Y-95.5
X143.71Y-103.12
X146.25Y-95.5
X146.25Y-103.12
T3
X124.5Y-114.85
X127.0Y-114.85
X129.5Y-114.85
X132.0Y-114.85
X134.5Y-114.85
X137.0Y-114.85
X139.5Y-114.85
X142.0Y-114.85
T4
X147.0Y-108.35
X149.54Y-108.35
X152.08Y-108.35
X122.75Y-108.35
X125.29Y-108.35
X127.83Y-108.35
X131.92Y-117.85
X133.305Y-120.69
X134.69Y-117.85
X136.075Y-120.69
X137.46Y-117.85
X138.845Y-120.69
X140.23Y-117.85
X141.615Y-120.69
X143.0Y-117.85
X154.5Y-97.35
X154.5Y-99.85
T5
X124.96Y-119.27
X149.96Y-119.27
X112.8Y-126.7
X112.8Y-95.3
T0
M30
